<svg id="Layer_1" data-name="Layer 1" xmlns="http://www.w3.org/2000/svg" viewBox="0 0 269.02 148.68"><defs><style>path{stroke:#fff;fill:#fff;}.cls-1,.cls-3,.cls-4{fill:none;stroke:#fff;stroke-linecap:round;stroke-miterlimit:10;stroke-width:5px;}.cls-2{fill:#fff;}.cls-3{stroke-dasharray:6 15 18 20 6 25;}.cls-4{stroke-dasharray:0 12 8 24 14 12;}</style></defs><path d="M26.17,113.31l24.1-95.63H71.36L95.6,113.31H78.83L73.59,90.13H48.18l-5.24,23.18Zm25-36.55H70.58L64.81,51.09q-1.44-6.42-2.49-11.59c-.7-3.45-1.17-6-1.44-7.54-.26,1.57-.74,4.09-1.44,7.54S57.91,46.77,57,51Z" transform="translate(0 -17.68)"/><path d="M188.61,113.31V17.68H217a35.85,35.85,0,0,1,16.84,3.74,27.14,27.14,0,0,1,11.07,10.41,30.47,30.47,0,0,1,3.93,15.72V83.31a30.81,30.81,0,0,1-3.93,15.79,27,27,0,0,1-11.07,10.48A35.85,35.85,0,0,1,217,113.31ZM205,98.64H217q7.08,0,11.27-4.12t4.19-11.21V47.55q0-6.94-4.19-11.07T217,32.36H205Z" transform="translate(0 -17.68)"/><path class="cls-1" d="M5.8,134.22c10.68,24.13,17.12,29.64,24.87,29.55,13-.15,17-33.34,29-33.31,12.1,0,16.77,33.4,28.3,33.4,7.69,0,14.53-6.18,22.49-29.45" transform="translate(0 -17.68)"/><path class="cls-2" d="M1.15,136.61a5.27,5.27,0,1,1,6.94,2.68A5.27,5.27,0,0,1,1.15,136.61Z" transform="translate(0 -17.68)"/><path d="M.51,136.89a6,6,0,1,0,3-7.87,6,6,0,0,0-3,7.87Zm9.63-4.26a4.56,4.56,0,1,1-6-2.33,4.57,4.57,0,0,1,6,2.33Z" transform="translate(0 -17.68)"/><path class="cls-2" d="M115.26,136.36a5.26,5.26,0,1,0-6.67,3.29A5.25,5.25,0,0,0,115.26,136.36Z" transform="translate(0 -17.68)"/><path d="M115.93,136.59A6,6,0,1,1,112.2,129a6,6,0,0,1,3.73,7.57C114.87,139.7,117,133.47,115.93,136.59Zm-10-3.39a4.56,4.56,0,1,0,5.79-2.85A4.57,4.57,0,0,0,106,133.2C105.15,135.59,106.77,130.82,106,133.2Z" transform="translate(0 -17.68)"/><line class="cls-3" x1="163.29" y1="122.89" x2="266.52" y2="122.89"/><line class="cls-4" x1="160.2" y1="140.31" x2="263.42" y2="140.31"/><path d="M148.08,47.86h10.29l15.75,20.65L158.3,89.16H148.08l12-15.54.42-.56c.14-.19.26-.35.35-.49H100.9V64.45h59.85a3.5,3.5,0,0,1-.42-.53,3.41,3.41,0,0,0-.49-.59Z" transform="translate(0 -17.68)"/></svg>