<svg xmlns="http://www.w3.org/2000/svg" xmlns:xlink="http://www.w3.org/1999/xlink" viewBox="0 0 373.04 188.12"><defs><style>.cls-1,.cls-11,.cls-2,.cls-3,.cls-5,.cls-7{fill:none;}.cls-1{clip-rule:evenodd;}.cls-10,.cls-2{fill-rule:evenodd;}.cls-4{clip-path:url(#clip-path);}.cls-5{stroke:#282828;stroke-width:0.75px;}.cls-11,.cls-5,.cls-7{stroke-linejoin:round;}.cls-6{clip-path:url(#clip-path-2);}.cls-7{stroke:#000;stroke-linecap:round;stroke-width:2.25px;}.cls-8{clip-path:url(#clip-path-4);}.cls-9{clip-path:url(#clip-path-27);}.cls-10{fill:#e2cba3;}.cls-10,.cls-11{opacity:0.5;}.cls-11{stroke:#bf851d;stroke-width:2px;}.cls-12{clip-path:url(#clip-path-28);}</style><clipPath id="clip-path" transform="translate(-46.3 -6.45)"><polygon class="cls-1" points="35.83 199.99 426.36 199.99 426.36 1.44 35.83 1.44 35.83 199.99 35.83 199.99"/></clipPath><clipPath id="clip-path-2" transform="translate(-46.3 -6.45)"><polygon class="cls-1" points="46.3 199.99 666.1 199.99 666.1 15.09 46.3 15.09 46.3 199.99 46.3 199.99"/></clipPath><clipPath id="clip-path-4" transform="translate(-46.3 -6.45)"><rect class="cls-3" x="35.83" y="1.44" width="390.54" height="198.54"/></clipPath><clipPath id="clip-path-27" transform="translate(-46.3 -6.45)"><polygon class="cls-1" points="0 198.54 390.61 198.54 390.61 0 0 0 0 198.54 0 198.54"/></clipPath><clipPath id="clip-path-28" transform="translate(-46.3 -6.45)"><polygon class="cls-1" points="113.38 198.54 503.99 198.54 503.99 0 113.38 0 113.38 198.54 113.38 198.54"/></clipPath></defs><g id="Layer_2" data-name="Layer 2"><g id="Layer_1-2" data-name="Layer 1"><g class="cls-4"><path class="cls-5" d="M65.05,192.9h354.3M65.05,174.47h354.3M65.05,156h354.3M65.05,137.61h354.3M65.05,119.18h354.3M65.05,100.76h354.3M65.05,82.25h354.3M65.05,63.82h354.3M65.05,45.39h354.3M65.05,27h354.3M65.05,8.54h354.3" transform="translate(-46.3 -6.45)"/></g><g class="cls-6"><polyline class="cls-7" points="18.36 21.6 24.69 21.75 31.16 114.28 37.63 118.05 44.09 141.8 50.56 154.91 57.02 69.94 63.49 129.47 69.82 133.09 76.29 61.92 82.75 84.59 89.22 94.54 95.69 166.94 102.15 116.67 108.62 102.48 114.95 153.37 121.42 160.92 127.88 63.77 134.35 127.23 140.81 121.91 147.28 140.95 153.75 166.32 160.21 125.22 166.54 94.54 173.01 166.94 179.47 116.67 185.94 96.77 192.41 85.9 198.87 136.87 205.34 63.23 211.67 75.03 218.14 97.16 224.6 67.01 231.07 79.42 237.53 62.92 244 127.23 250.47 121.91 256.8 140.95 263.26 105.95 269.73 104.25 276.2 89.53 282.66 134.4 289.13 22.06 295.6 21.6"/></g><g class="cls-4"><g class="cls-8"><path d="M56.58,193.12a.4.4,0,0,1,0,.15.09.09,0,0,1-.08,0H55.3a.08.08,0,0,1-.07,0,.39.39,0,0,1,0-.3.07.07,0,0,1,.07,0h1.22s0,0,0,0a.14.14,0,0,0,0,.06Z" transform="translate(-46.3 -6.45)"/><path d="M59.54,193.51a.33.33,0,0,1,0,.15.08.08,0,0,1-.08.05H59v.77a.08.08,0,0,1,0,0l0,0-.08,0h-.23l-.07,0,0,0a.08.08,0,0,1,0,0v-.77H57s0,0,0,0,0,0,0-.06,0-.07,0-.12a.28.28,0,0,1,0-.09.19.19,0,0,1,0-.08.25.25,0,0,1,0-.07l0-.07L58.29,191l0,0a.09.09,0,0,1,.07,0l.1,0h.32l.11,0,.07,0a.08.08,0,0,1,0,0v2.33h.41a.07.07,0,0,1,.08.05A.28.28,0,0,1,59.54,193.51Zm-1-2.21h0l-1.17,2h1.18Z" transform="translate(-46.3 -6.45)"/></g></g><g class="cls-4"><g class="cls-8"><path d="M56.58,174.68a.49.49,0,0,1,0,.15.08.08,0,0,1-.08,0H55.3a.07.07,0,0,1-.07,0,.39.39,0,0,1,0-.3.07.07,0,0,1,.07,0h1.22s0,0,0,0l0,.06Z" transform="translate(-46.3 -6.45)"/><path d="M59.36,175.06a1.06,1.06,0,0,1-.09.45,1,1,0,0,1-.25.35,1,1,0,0,1-.4.22,1.82,1.82,0,0,1-.55.08,1.87,1.87,0,0,1-.34,0l-.28-.07-.21-.09-.1-.06a.05.05,0,0,1,0,0,.08.08,0,0,1,0-.05.64.64,0,0,1,0-.07v-.1a.46.46,0,0,1,0-.14.07.07,0,0,1,.06,0l.1.05.2.09a1.51,1.51,0,0,0,.28.1,1.3,1.3,0,0,0,.36,0,1.14,1.14,0,0,0,.33,0,.57.57,0,0,0,.24-.14.43.43,0,0,0,.15-.2.75.75,0,0,0,0-.26.61.61,0,0,0-.06-.28.55.55,0,0,0-.18-.22.92.92,0,0,0-.3-.14,1.62,1.62,0,0,0-.4-.05h-.41l0,0s0,0,0-.06a.41.41,0,0,1,0-.18.11.11,0,0,1,0-.06l0,0h.36a1.21,1.21,0,0,0,.34,0,.77.77,0,0,0,.25-.14.51.51,0,0,0,.15-.21.67.67,0,0,0,.06-.28.54.54,0,0,0,0-.22.42.42,0,0,0-.11-.18.57.57,0,0,0-.18-.12.77.77,0,0,0-.27,0,.73.73,0,0,0-.3,0l-.24.1-.18.11-.1.05h0s0,0,0,0,0,0,0-.06v-.17a.13.13,0,0,0,0-.06l0,0,0-.05.11-.08.2-.1a1.58,1.58,0,0,1,.28-.08,1.79,1.79,0,0,1,.34,0,1.42,1.42,0,0,1,.44.06.91.91,0,0,1,.32.19.72.72,0,0,1,.2.28,1.06,1.06,0,0,1,.06.37,1.13,1.13,0,0,1,0,.32.91.91,0,0,1-.13.26,1,1,0,0,1-.21.19.77.77,0,0,1-.3.11h0a1,1,0,0,1,.35.09,1.31,1.31,0,0,1,.27.19,1.27,1.27,0,0,1,.18.27A.83.83,0,0,1,59.36,175.06Z" transform="translate(-46.3 -6.45)"/></g></g><g class="cls-4"><g class="cls-8"><path d="M56.58,156.25a.49.49,0,0,1,0,.15.08.08,0,0,1-.08,0H55.3a.07.07,0,0,1-.07,0,.28.28,0,0,1,0-.15.24.24,0,0,1,0-.15.08.08,0,0,1,.07,0h1.22l0,0a.25.25,0,0,0,0,.07Z" transform="translate(-46.3 -6.45)"/><path d="M59.39,157.46s0,.07,0,.09a.14.14,0,0,1,0,.07l0,0H57.19a.09.09,0,0,1,0,0l0-.07a.28.28,0,0,1,0-.1v-.1a.64.64,0,0,1,0-.07.16.16,0,0,1,0-.07l.06-.07.73-.75a4.63,4.63,0,0,0,.4-.46,3.76,3.76,0,0,0,.24-.38,1.67,1.67,0,0,0,.11-.31,2.46,2.46,0,0,0,0-.26.59.59,0,0,0,0-.23.44.44,0,0,0-.12-.19.53.53,0,0,0-.19-.13.76.76,0,0,0-.27-.05,1.07,1.07,0,0,0-.32.05,1.33,1.33,0,0,0-.24.11l-.18.1a.25.25,0,0,1-.11,0h0l0,0a.64.64,0,0,1,0-.07v-.17s0,0,0-.06a.08.08,0,0,1,0,0l0-.05.12-.08.21-.1.28-.08a1.55,1.55,0,0,1,.31,0,1.32,1.32,0,0,1,.47.08,1.08,1.08,0,0,1,.33.2.92.92,0,0,1,.2.31,1,1,0,0,1,.06.36,2,2,0,0,1,0,.35,1.71,1.71,0,0,1-.13.38,4.66,4.66,0,0,1-.29.45c-.13.16-.3.35-.5.57l-.58.6h1.63s0,0,0,0a.14.14,0,0,1,0,.06S59.39,157.43,59.39,157.46Z" transform="translate(-46.3 -6.45)"/></g></g><g class="cls-4"><g class="cls-8"><path d="M56.58,137.8a.51.51,0,0,1,0,.16.1.1,0,0,1-.08,0H55.3a.08.08,0,0,1-.07-.05.24.24,0,0,1,0-.15.28.28,0,0,1,0-.15.08.08,0,0,1,.07,0h1.22l0,0a.14.14,0,0,0,0,.06Z" transform="translate(-46.3 -6.45)"/><path d="M59.4,139s0,.06,0,.09l0,.06,0,0h-2l0,0s0,0,0-.06,0-.06,0-.09,0-.07,0-.09,0,0,0-.06l0,0h.81v-2.78l-.71.42-.08,0s0,0-.06,0a.08.08,0,0,1,0-.06.31.31,0,0,1,0-.1v-.09s0,0,0-.05a.05.05,0,0,1,0,0s0,0,0,0l.84-.54h.4l0,0a0,0,0,0,1,0,0v3.21h.71l0,0s0,0,0,.06S59.4,139,59.4,139Z" transform="translate(-46.3 -6.45)"/></g></g><g class="cls-4"><g class="cls-8"><path d="M59.51,119a3.67,3.67,0,0,1-.07.77,1.59,1.59,0,0,1-.22.6,1,1,0,0,1-.4.38,1.25,1.25,0,0,1-.61.14,1.28,1.28,0,0,1-.58-.12.94.94,0,0,1-.38-.36,1.64,1.64,0,0,1-.21-.59A4.74,4.74,0,0,1,57,119a4.49,4.49,0,0,1,.07-.77,2,2,0,0,1,.22-.6,1.12,1.12,0,0,1,.4-.38,1.17,1.17,0,0,1,.61-.14,1.25,1.25,0,0,1,.58.12.88.88,0,0,1,.38.36,1.64,1.64,0,0,1,.21.59A4.74,4.74,0,0,1,59.51,119Zm-.5,0a3.78,3.78,0,0,0,0-.49,2,2,0,0,0-.06-.38,1.1,1.1,0,0,0-.09-.29.58.58,0,0,0-.15-.19.55.55,0,0,0-.19-.12,1,1,0,0,0-.25,0,.6.6,0,0,0-.39.11.72.72,0,0,0-.23.31,1.55,1.55,0,0,0-.12.46,5.17,5.17,0,0,0,0,.57,4.64,4.64,0,0,0,0,.7,1.38,1.38,0,0,0,.14.47.59.59,0,0,0,.23.26.75.75,0,0,0,.35.08.76.76,0,0,0,.27,0,.6.6,0,0,0,.21-.14.68.68,0,0,0,.14-.23,1.32,1.32,0,0,0,.09-.3,1.74,1.74,0,0,0,0-.34C59,119.25,59,119.12,59,119Z" transform="translate(-46.3 -6.45)"/></g></g><g class="cls-4"><g class="cls-8"><path d="M59.4,102.16s0,.07,0,.09,0,0,0,.06,0,0,0,0h-2s0,0,0,0a.16.16,0,0,1,0-.06s0,0,0-.09,0-.06,0-.09a.14.14,0,0,0,0-.06s0,0,0,0l0,0h.76V99.19l-.71.42-.08,0H57.3a.14.14,0,0,1,0-.06.37.37,0,0,1,0-.11v-.08l0-.06a.08.08,0,0,1,0,0l0,0,.84-.54,0,0h.37l0,0V102h.67l0,0s0,0,0,0a.14.14,0,0,1,0,.06S59.4,102.13,59.4,102.16Z" transform="translate(-46.3 -6.45)"/></g></g><g class="cls-4"><g class="cls-8"><path d="M59.39,83.7a.22.22,0,0,1,0,.09.14.14,0,0,1,0,.07l0,0H57.19l0,0,0-.07a.28.28,0,0,1,0-.1.31.31,0,0,1,0-.1.15.15,0,0,1,0-.07.43.43,0,0,1,0-.07l.06-.07.73-.75a3.73,3.73,0,0,0,.4-.47,2.08,2.08,0,0,0,.24-.37,1.67,1.67,0,0,0,.11-.31,1.18,1.18,0,0,0,0-.26.59.59,0,0,0,0-.23.45.45,0,0,0-.11-.19.69.69,0,0,0-.2-.13.72.72,0,0,0-.27-.05,1,1,0,0,0-.31.05,2.16,2.16,0,0,0-.25.1l-.18.11a.25.25,0,0,1-.11,0h0l0,0a.15.15,0,0,1,0-.07.31.31,0,0,1,0-.1v-.07s0,0,0-.06,0,0,0,0a.23.23,0,0,1,0,0l.11-.08.21-.1.28-.08a1.08,1.08,0,0,1,.32,0,1.3,1.3,0,0,1,.46.08,1.08,1.08,0,0,1,.33.2,1,1,0,0,1,.2.3,1.15,1.15,0,0,1,.06.37,2.07,2.07,0,0,1,0,.35,1.32,1.32,0,0,1-.13.38,3.3,3.3,0,0,1-.29.45,7.07,7.07,0,0,1-.5.56l-.58.61h1.63a.08.08,0,0,1,0,0,.14.14,0,0,1,0,.06A.28.28,0,0,1,59.39,83.7Z" transform="translate(-46.3 -6.45)"/></g></g><g class="cls-4"><g class="cls-8"><path d="M59.36,64.43a1.06,1.06,0,0,1-.09.45,1,1,0,0,1-.25.35,1.18,1.18,0,0,1-.4.22,1.8,1.8,0,0,1-.54.08,1.9,1.9,0,0,1-.35,0l-.28-.07-.21-.09-.1-.06s0,0,0,0,0,0,0,0a.64.64,0,0,1,0-.07V65a.41.41,0,0,1,0-.14.05.05,0,0,1,.06,0l.1,0a.75.75,0,0,0,.2.1,1.51,1.51,0,0,0,.28.1,1.36,1.36,0,0,0,.36,0,1.09,1.09,0,0,0,.33,0,.68.68,0,0,0,.25-.14.6.6,0,0,0,.14-.21.55.55,0,0,0,0-.26.67.67,0,0,0-.06-.28.6.6,0,0,0-.18-.21.83.83,0,0,0-.3-.14,1.62,1.62,0,0,0-.4-.05h-.41l0,0,0-.06a.28.28,0,0,1,0-.1.19.19,0,0,1,0-.08.08.08,0,0,1,0-.06s0,0,0,0h.36a1.16,1.16,0,0,0,.34,0,.68.68,0,0,0,.25-.14.65.65,0,0,0,.16-.21.88.88,0,0,0,.05-.29.52.52,0,0,0,0-.21.42.42,0,0,0-.11-.18.47.47,0,0,0-.18-.12.77.77,0,0,0-.27,0,1,1,0,0,0-.3,0l-.24.11-.18.11-.1,0h0l0,0s0,0,0-.06a.28.28,0,0,1,0-.1.15.15,0,0,1,0-.07.13.13,0,0,1,0-.06.05.05,0,0,1,0,0s0,0,0,0l.11-.08.2-.1.28-.08a1.86,1.86,0,0,1,.34,0,1.4,1.4,0,0,1,.44.07.77.77,0,0,1,.32.18.72.72,0,0,1,.2.29,1,1,0,0,1,.06.36,1.08,1.08,0,0,1,0,.32.87.87,0,0,1-.14.27,1,1,0,0,1-.21.19.89.89,0,0,1-.3.11h0a1,1,0,0,1,.35.09.77.77,0,0,1,.27.19.93.93,0,0,1,.18.26A.88.88,0,0,1,59.36,64.43Z" transform="translate(-46.3 -6.45)"/></g></g><g class="cls-4"><g class="cls-8"><path d="M59.54,46a.46.46,0,0,1,0,.14.09.09,0,0,1-.08.06H59V47s0,0,0,0l0,0-.07,0h-.24l-.07,0,0,0s0,0,0,0V46.2H57l0,0s0,0,0-.07v-.2a.19.19,0,0,1,0-.08.14.14,0,0,1,0-.07l0-.07,1.31-2.22,0,0,.07,0h.42l.11,0,.07,0a0,0,0,0,1,0,0V45.8h.42a.08.08,0,0,1,.07,0A.35.35,0,0,1,59.54,46Zm-1-2.21h0l-1.17,2h1.18Z" transform="translate(-46.3 -6.45)"/></g></g><g class="cls-4"><g class="cls-8"><path d="M59.37,27.42a1.21,1.21,0,0,1-.1.52.93.93,0,0,1-.28.39,1.37,1.37,0,0,1-.43.24,1.87,1.87,0,0,1-.55.08l-.32,0-.28-.06-.19-.07-.1-.06,0,0s0,0,0,0a.13.13,0,0,1,0-.06s0-.06,0-.09,0-.06,0-.09,0,0,0-.06l0,0h0s0,0,.08,0l.16.08.25.07a1.25,1.25,0,0,0,.35,0,1.23,1.23,0,0,0,.35-.05.58.58,0,0,0,.27-.14.55.55,0,0,0,.18-.24.75.75,0,0,0,.07-.35.75.75,0,0,0-.06-.31.41.41,0,0,0-.17-.22.71.71,0,0,0-.29-.14,1.62,1.62,0,0,0-.41,0,1.32,1.32,0,0,0-.3,0H57.4a.19.19,0,0,1-.12,0,.28.28,0,0,1,0-.15V25.13a.23.23,0,0,1,0-.14.19.19,0,0,1,.13,0H59l0,0s0,0,0,0a.64.64,0,0,1,0,.07s0,.06,0,.09a.35.35,0,0,1,0,.16s0,.06-.08.06h-1.3v1l.19,0h.23a1.69,1.69,0,0,1,.53.08,1.07,1.07,0,0,1,.38.21.83.83,0,0,1,.22.33A1,1,0,0,1,59.37,27.42Z" transform="translate(-46.3 -6.45)"/></g></g><g class="cls-4"><g class="cls-8"><path d="M59.48,9a1.49,1.49,0,0,1-.07.47,1.09,1.09,0,0,1-.23.39,1.05,1.05,0,0,1-.38.27,1.4,1.4,0,0,1-.56.11,1.25,1.25,0,0,1-.4-.06,1,1,0,0,1-.31-.16.78.78,0,0,1-.21-.26,1.16,1.16,0,0,1-.14-.34A2.74,2.74,0,0,1,57.1,9c0-.15,0-.32,0-.5a3.83,3.83,0,0,1,0-.47,1.71,1.71,0,0,1,.09-.46,1.94,1.94,0,0,1,.17-.42,1.39,1.39,0,0,1,.28-.35,1.46,1.46,0,0,1,.41-.23,1.71,1.71,0,0,1,.54-.08h.21l.2,0,.15,0,.08,0a.05.05,0,0,1,0,0,.05.05,0,0,1,0,0v.2a.13.13,0,0,1,0,.06l0,0h0a.13.13,0,0,1-.08,0L59,6.9l-.19,0a.94.94,0,0,0-.25,0,.88.88,0,0,0-.45.1.86.86,0,0,0-.31.29,1.33,1.33,0,0,0-.18.42,2.74,2.74,0,0,0-.07.5l.17-.09.2-.07.23-.06.26,0a1.46,1.46,0,0,1,.5.08.89.89,0,0,1,.33.23.88.88,0,0,1,.18.33A1.86,1.86,0,0,1,59.48,9ZM59,9a1.39,1.39,0,0,0,0-.3.55.55,0,0,0-.11-.23.48.48,0,0,0-.2-.14.77.77,0,0,0-.32,0h-.21l-.2.06-.19.07-.16.1a3.49,3.49,0,0,0,0,.61,1.18,1.18,0,0,0,.14.39.45.45,0,0,0,.22.21.71.71,0,0,0,.31.07.74.74,0,0,0,.31-.07.79.79,0,0,0,.22-.18A.91.91,0,0,0,59,9.31,1,1,0,0,0,59,9Z" transform="translate(-46.3 -6.45)"/></g></g><g class="cls-4"><g class="cls-8"><path d="M52.3,113.16l.09,0a.19.19,0,0,1,0,.09s0,.08,0,.14v.38a.53.53,0,0,1,0,.13s0,.06,0,.09l0,.06a.1.1,0,0,1,0,0l-.06,0L47,116l-.16,0a.13.13,0,0,1-.09,0,.33.33,0,0,1,0-.13,1.63,1.63,0,0,1,0-.24,1,1,0,0,1,0-.19.37.37,0,0,1,0-.12l0-.06.07,0,4.8-1.64h0L46.87,112l-.08,0a.15.15,0,0,1,0-.06.44.44,0,0,1,0-.13,1.22,1.22,0,0,1,0-.21c0-.09,0-.16,0-.22a.19.19,0,0,1,0-.1.12.12,0,0,1,.09,0,.71.71,0,0,1,.16,0Z" transform="translate(-46.3 -6.45)"/><path d="M50.3,107.15a2.82,2.82,0,0,1,.89.13,2,2,0,0,1,.71.38,1.78,1.78,0,0,1,.46.64,2.16,2.16,0,0,1,.16.88,2.44,2.44,0,0,1-.14.85,1.57,1.57,0,0,1-.43.61,1.8,1.8,0,0,1-.67.36,3.27,3.27,0,0,1-1.79,0,1.82,1.82,0,0,1-.7-.38,1.71,1.71,0,0,1-.46-.63,2.45,2.45,0,0,1,0-1.74,1.63,1.63,0,0,1,.42-.6,1.86,1.86,0,0,1,.68-.37A3,3,0,0,1,50.3,107.15Zm.05.76a3,3,0,0,0-.61.06,1.49,1.49,0,0,0-.5.19,1,1,0,0,0-.34.38,1.13,1.13,0,0,0-.13.58,1.19,1.19,0,0,0,.12.56,1,1,0,0,0,.32.39,1.52,1.52,0,0,0,.5.22,2.45,2.45,0,0,0,.62.07,2.93,2.93,0,0,0,.61-.06,1.25,1.25,0,0,0,.5-.2.87.87,0,0,0,.34-.37,1.36,1.36,0,0,0,0-1.14.94.94,0,0,0-.32-.39A1.23,1.23,0,0,0,51,108,2.48,2.48,0,0,0,50.35,107.91Z" transform="translate(-46.3 -6.45)"/><path d="M52.33,105.34h.06l0,.06,0,.11v.36a.81.81,0,0,1,0,.11.15.15,0,0,1,0,.06h-6a.09.09,0,0,1,0-.06.81.81,0,0,1,0-.11,1.62,1.62,0,0,1,0-.36l0-.11,0-.06h5.95Z" transform="translate(-46.3 -6.45)"/><path d="M52,101.92l.2,0a.23.23,0,0,1,.11,0l.07.11c0,.05,0,.1,0,.16l0,.19a1.41,1.41,0,0,1,0,.2,1.38,1.38,0,0,1-.08.53.78.78,0,0,1-.25.36.94.94,0,0,1-.41.21,2.64,2.64,0,0,1-.6.06H48.85v.56a.1.1,0,0,1-.07.1.45.45,0,0,1-.23,0h-.14a.12.12,0,0,1-.09,0,.09.09,0,0,1-.06,0,.15.15,0,0,1,0-.07v-.55h-1s0,0,0-.06l0-.11v-.36a.81.81,0,0,1,0-.11l0-.06h1v-1s0,0,0-.06a.1.1,0,0,1,.06-.05l.09,0h.14a.59.59,0,0,1,.23,0,.12.12,0,0,1,.07.11v1h2.21a1.15,1.15,0,0,0,.62-.13.45.45,0,0,0,.21-.43.5.5,0,0,0,0-.18s0-.1,0-.14a.76.76,0,0,1,0-.11.12.12,0,0,1,0-.08.08.08,0,0,1,0,0l0,0,.08,0Z" transform="translate(-46.3 -6.45)"/><path d="M52.33,98.07a.1.1,0,0,1,.08,0,.3.3,0,0,1,0,.1,1.62,1.62,0,0,1,0,.36.19.19,0,0,1,0,.1.1.1,0,0,1-.08,0h-.39a2.36,2.36,0,0,1,.43.58,1.57,1.57,0,0,1,.15.68,1.94,1.94,0,0,1-.08.56,1.1,1.1,0,0,1-.61.71,1.38,1.38,0,0,1-1.1,0,1.3,1.3,0,0,1-.41-.4,1.82,1.82,0,0,1-.24-.62,3.6,3.6,0,0,1-.08-.83v-.55h-.31a1.7,1.7,0,0,0-.41,0A.73.73,0,0,0,49,99a.75.75,0,0,0-.18.28,1.37,1.37,0,0,0-.05.43,1.75,1.75,0,0,0,.06.48,2.21,2.21,0,0,0,.14.37c0,.11.1.2.14.27a.4.4,0,0,1,.06.16s0,0,0,.06a.1.1,0,0,1-.06,0l-.09,0h-.12l-.17,0a.25.25,0,0,1-.12-.07,1.24,1.24,0,0,1-.14-.21,2,2,0,0,1-.14-.33,2.58,2.58,0,0,1-.1-.42,2.3,2.3,0,0,1-.05-.45,2.57,2.57,0,0,1,.1-.73,1.15,1.15,0,0,1,.29-.48,1.17,1.17,0,0,1,.46-.27,2.14,2.14,0,0,1,.65-.08Zm-1.81.72v.62a2.62,2.62,0,0,0,0,.52,1.42,1.42,0,0,0,.15.37.65.65,0,0,0,.56.28.65.65,0,0,0,.49-.2.78.78,0,0,0,.18-.55,1.1,1.1,0,0,0-.14-.53,2.49,2.49,0,0,0-.45-.51Z" transform="translate(-46.3 -6.45)"/><path d="M48.54,93.42a.45.45,0,0,1,.23,0,.14.14,0,0,1,.06.11v.57a.89.89,0,0,1,.35-.22,1.39,1.39,0,0,1,.4-.06,1.66,1.66,0,0,1,.61.11,1.21,1.21,0,0,1,.45.31,1.57,1.57,0,0,1,.28.49,2.08,2.08,0,0,1,.09.63,1.76,1.76,0,0,1-.06.46.92.92,0,0,1-.16.33.62.62,0,0,0,.41.19.3.3,0,0,0,.26-.15.69.69,0,0,0,.11-.38l0-1a2.34,2.34,0,0,1,.09-.55,1.17,1.17,0,0,1,.2-.42,1,1,0,0,1,.33-.29,1.08,1.08,0,0,1,.46-.1,1.2,1.2,0,0,1,.52.12,1.09,1.09,0,0,1,.43.35,1.69,1.69,0,0,1,.3.6,3.1,3.1,0,0,1,.11.86,3.21,3.21,0,0,1-.09.82,1.54,1.54,0,0,1-.22.55.8.8,0,0,1-.34.32,1,1,0,0,1-.42.09,1.27,1.27,0,0,1-.28,0,1.19,1.19,0,0,1-.26-.11,1.88,1.88,0,0,1-.24-.18A2.8,2.8,0,0,1,52,96.6a.8.8,0,0,1-.28.32.65.65,0,0,1-.36.1,1,1,0,0,1-.48-.11,1.46,1.46,0,0,1-.38-.27,1.51,1.51,0,0,1-.37.22,1.41,1.41,0,0,1-.49.07,1.48,1.48,0,0,1-.61-.11,1.23,1.23,0,0,1-.45-.32,1.29,1.29,0,0,1-.29-.48,2.06,2.06,0,0,1-.1-.62c0-.12,0-.24,0-.34a2.47,2.47,0,0,1,.06-.29v-1.2a.11.11,0,0,1,.07-.11A.43.43,0,0,1,48.54,93.42Zm1.05,1.14a.85.85,0,0,0-.63.22.82.82,0,0,0-.23.63.87.87,0,0,0,.07.37A.83.83,0,0,0,49,96a.8.8,0,0,0,.29.15.91.91,0,0,0,.33,0,.83.83,0,0,0,.62-.22.85.85,0,0,0,.23-.62,1.07,1.07,0,0,0-.07-.38.83.83,0,0,0-.19-.26.76.76,0,0,0-.28-.15A1,1,0,0,0,49.59,94.56Zm3.14-.37a.46.46,0,0,0-.4.21,1,1,0,0,0-.14.57l0,1a1.2,1.2,0,0,0,.21.23l.19.15a.67.67,0,0,0,.18.07l.18,0a.47.47,0,0,0,.43-.29,1.83,1.83,0,0,0,.15-.81,2.23,2.23,0,0,0-.06-.56,1.27,1.27,0,0,0-.17-.35.53.53,0,0,0-.25-.2A.67.67,0,0,0,52.73,94.19Z" transform="translate(-46.3 -6.45)"/><path d="M50.17,89.18a.3.3,0,0,1,.25.09.29.29,0,0,1,.07.2v2.61a2.25,2.25,0,0,0,.6-.07,1.18,1.18,0,0,0,.45-.22,1,1,0,0,0,.29-.4,1.59,1.59,0,0,0,.1-.61,2.47,2.47,0,0,0,0-.5c0-.15-.07-.28-.11-.39l-.1-.26a.47.47,0,0,1,0-.16.08.08,0,0,1,0,0l0,0,.09,0h.31l.06,0,.05,0a.88.88,0,0,1,.08.14c0,.08.07.18.11.31s.06.27.09.44a2.93,2.93,0,0,1,0,.53,2.55,2.55,0,0,1-.13.86,1.64,1.64,0,0,1-1.08,1,3,3,0,0,1-1,.13,3,3,0,0,1-.92-.13,2.09,2.09,0,0,1-.69-.38,1.7,1.7,0,0,1-.43-.6,2,2,0,0,1-.16-.79,2.11,2.11,0,0,1,.15-.8,1.49,1.49,0,0,1,.41-.54,1.66,1.66,0,0,1,.59-.31,2.86,2.86,0,0,1,.73-.1Zm-.21.74a1.32,1.32,0,0,0-.9.25,1,1,0,0,0-.33.8,1.16,1.16,0,0,0,.1.47,1,1,0,0,0,.27.34,1.33,1.33,0,0,0,.39.21,1.86,1.86,0,0,0,.47.09Z" transform="translate(-46.3 -6.45)"/><path d="M51.25,85.6a1.33,1.33,0,0,1,.54.11,1.13,1.13,0,0,1,.4.32,1.51,1.51,0,0,1,.25.49,2.47,2.47,0,0,1,.08.63,2.73,2.73,0,0,1,0,.41,1.69,1.69,0,0,1-.09.34,1.28,1.28,0,0,1-.1.26.76.76,0,0,1-.1.15.24.24,0,0,1-.12.07.72.72,0,0,1-.22,0h-.14l-.09,0-.05,0a.14.14,0,0,1,0-.06.3.3,0,0,1,.06-.14l.13-.24a1.93,1.93,0,0,0,.13-.32,1.51,1.51,0,0,0,.06-.44,1.15,1.15,0,0,0,0-.33.69.69,0,0,0-.12-.26.44.44,0,0,0-.19-.17.64.64,0,0,0-.28-.06.52.52,0,0,0-.29.08,1.14,1.14,0,0,0-.2.23,1.91,1.91,0,0,0-.16.32l-.14.36a3,3,0,0,1-.17.37,1.39,1.39,0,0,1-.23.31,1,1,0,0,1-.33.23,1,1,0,0,1-.45.09,1.17,1.17,0,0,1-.45-.09,1.07,1.07,0,0,1-.37-.27,1.35,1.35,0,0,1-.26-.46,2,2,0,0,1-.1-.63,1.63,1.63,0,0,1,0-.31,1.77,1.77,0,0,1,.07-.29.93.93,0,0,1,.08-.22.85.85,0,0,1,.09-.14.17.17,0,0,1,.06-.06l.06,0h.33l.09,0a.1.1,0,0,1,.05,0,.07.07,0,0,1,0,0A.19.19,0,0,1,49,86l-.1.19a1.83,1.83,0,0,0-.1.28,1.07,1.07,0,0,0-.05.37,1.15,1.15,0,0,0,0,.33.71.71,0,0,0,.12.23.62.62,0,0,0,.18.14.59.59,0,0,0,.23,0,.46.46,0,0,0,.29-.09.64.64,0,0,0,.2-.23A1.37,1.37,0,0,0,50,87l.15-.36a3.17,3.17,0,0,1,.17-.38,1.4,1.4,0,0,1,.22-.32,1.09,1.09,0,0,1,.32-.23A1.15,1.15,0,0,1,51.25,85.6Z" transform="translate(-46.3 -6.45)"/></g></g><g class="cls-9"><polygon class="cls-10" points="10.72 12.25 34.54 12.25 34.54 28.9 10.72 28.9 10.72 12.25 10.72 12.25"/><polygon class="cls-11" points="10.72 12.25 34.54 12.25 34.54 28.9 10.72 28.9 10.72 12.25 10.72 12.25"/><g class="cls-12"><polygon class="cls-10" points="280.08 12.25 303.82 12.25 303.82 28.9 280.08 28.9 280.08 12.25 280.08 12.25"/><polygon class="cls-11" points="280.08 12.25 303.82 12.25 303.82 28.9 280.08 28.9 280.08 12.25 280.08 12.25"/></g></g></g></g></svg>