<svg xmlns="http://www.w3.org/2000/svg" xmlns:xlink="http://www.w3.org/1999/xlink" viewBox="0 0 373.04 188.12"><defs><style>.cls-1,.cls-11,.cls-2,.cls-3,.cls-5,.cls-7{fill:none;}.cls-1{clip-rule:evenodd;}.cls-10,.cls-2{fill-rule:evenodd;}.cls-4{clip-path:url(#clip-path);}.cls-5{stroke:#282828;stroke-width:0.75px;}.cls-11,.cls-5,.cls-7{stroke-linejoin:round;}.cls-6{clip-path:url(#clip-path-2);}.cls-7{stroke:#000;stroke-linecap:round;stroke-width:2.25px;}.cls-8{clip-path:url(#clip-path-4);}.cls-9{clip-path:url(#clip-path-27);}.cls-10{fill:#e2cba3;}.cls-10,.cls-11{opacity:0.5;}.cls-11{stroke:#bf851d;stroke-width:2px;}</style><clipPath id="clip-path" transform="translate(-13.88 -5.01)"><polygon class="cls-1" points="3.4 198.54 393.94 198.54 393.94 0 3.4 0 3.4 198.54 3.4 198.54"/></clipPath><clipPath id="clip-path-2" transform="translate(-13.88 -5.01)"><polygon class="cls-1" points="32.63 191.91 387.39 191.91 387.39 7.02 32.63 7.02 32.63 191.91 32.63 191.91"/></clipPath><clipPath id="clip-path-4" transform="translate(-13.88 -5.01)"><rect class="cls-3" x="3.4" width="390.54" height="198.54"/></clipPath><clipPath id="clip-path-27" transform="translate(-13.88 -5.01)"><polygon class="cls-1" points="0 198.54 390.61 198.54 390.61 0 0 0 0 198.54 0 198.54"/></clipPath></defs><g id="Layer_2" data-name="Layer 2"><g id="Layer_1-2" data-name="Layer 1"><g class="cls-4"><path class="cls-5" d="M32.63,191.45H386.92M32.63,173H386.92M32.63,154.6H386.92M32.63,136.17H386.92M32.63,117.74H386.92M32.63,99.31H386.92M32.63,80.81H386.92M32.63,62.38H386.92M32.63,44H386.92M32.63,25.52H386.92M32.63,7.09H386.92" transform="translate(-13.88 -5.01)"/></g><g class="cls-6"><polyline class="cls-7" points="20.64 67.74 24.34 148.86 28.04 95.42 31.66 151.86 35.36 62.19 39.06 125.26 42.77 58.88 46.47 94.73 50.17 21.4 53.87 20.25 57.49 20.4 61.19 112.93 64.89 116.7 68.6 140.45 72.3 153.56 76 68.59 79.7 128.12 83.32 131.74 87.02 60.57 90.72 83.24 94.43 93.19 98.13 165.59 101.83 115.32 105.53 101.13 109.15 152.02 112.85 159.57 116.56 62.42 120.26 125.88 123.96 120.56 127.66 139.6 131.36 164.97 135.06 123.88 138.68 93.19 142.38 165.59 146.09 115.32 149.79 95.42 153.49 84.55 157.19 135.52 160.89 61.88 164.51 73.68 168.22 95.81 171.92 65.66 175.62 78.08 179.32 61.58 183.02 125.88 186.72 120.56 190.34 139.6 194.04 104.6 197.75 102.9 201.45 88.18 205.15 133.05 208.85 20.71 212.55 20.25 216.17 20.09 219.88 115.32 223.58 136.6 227.28 57.49 230.98 136.21 234.68 79.46 238.38 126.42 242.08 65.04 245.71 85.48 249.41 164.97 253.11 160.5 256.81 114.08 260.51 165.44 264.21 160.58 267.91 105.06 271.54 125.88 275.24 120.56 278.94 139.6 282.64 86.94 286.34 129.43 290.04 151.4 293.74 162.04 297.37 131.74 301.07 83.94 304.77 134.98 308.47 82.08 312.17 97.04 315.87 151.86 319.57 62.19 323.27 125.26 326.9 101.21 330.6 57.49 334.3 136.21 338 79.46 341.7 103.37 345.4 163.97 349.1 19.71 352.73 19.17 356.43 20.63 360.13 113.47 363.83 87.17 367.53 134.05 371.23 134.21"/></g><g class="cls-4"><g class="cls-8"><path d="M24.16,191.68a.49.49,0,0,1,0,.15.09.09,0,0,1-.08,0H22.88a.07.07,0,0,1-.07,0,.39.39,0,0,1,0-.3.07.07,0,0,1,.07,0H24.1s0,0,0,0a.08.08,0,0,1,0,.06A.22.22,0,0,1,24.16,191.68Z" transform="translate(-13.88 -5.01)"/><path d="M27.12,192.06a.28.28,0,0,1,0,.15s0,.06-.08.06H26.6V193s0,0,0,0l0,0-.08,0h-.23l-.08,0s0,0,0,0,0,0,0,0v-.76H24.56l0,0a.14.14,0,0,1,0-.07.34.34,0,0,1,0-.11V192s0,0,0-.07a.14.14,0,0,1,0-.07l0-.07,1.3-2.22.05,0,.07,0h.42l.11,0,.07,0,0,0v2.33H27a.1.1,0,0,1,.08,0A.33.33,0,0,1,27.12,192.06Zm-1-2.2h0l-1.18,2h1.19Z" transform="translate(-13.88 -5.01)"/></g></g><g class="cls-4"><g class="cls-8"><path d="M24.16,173.23a.51.51,0,0,1,0,.16.09.09,0,0,1-.08,0H22.88a.08.08,0,0,1-.07,0,.3.3,0,0,1,0-.16.28.28,0,0,1,0-.15.08.08,0,0,1,.07,0H24.1s0,0,0,0a.14.14,0,0,1,0,.06A.28.28,0,0,1,24.16,173.23Z" transform="translate(-13.88 -5.01)"/><path d="M26.94,173.62a1.13,1.13,0,0,1-.09.45.94.94,0,0,1-.25.34,1.25,1.25,0,0,1-.41.23,1.81,1.81,0,0,1-.54.07,1.87,1.87,0,0,1-.34,0l-.28-.07a.71.71,0,0,1-.21-.08l-.1-.06,0,0s0,0,0-.05,0,0,0-.07v-.1c0-.07,0-.12,0-.14a.05.05,0,0,1,.06,0,.27.27,0,0,1,.1,0,1.09,1.09,0,0,0,.19.1,1.63,1.63,0,0,0,.29.1,1.25,1.25,0,0,0,.35,0,1.18,1.18,0,0,0,.34,0,.69.69,0,0,0,.24-.14.51.51,0,0,0,.15-.21.71.71,0,0,0,.05-.26.64.64,0,0,0-.06-.28.63.63,0,0,0-.19-.21.87.87,0,0,0-.29-.14,1.68,1.68,0,0,0-.4-.05h-.41l0,0a.14.14,0,0,1,0-.06.31.31,0,0,1,0-.1.28.28,0,0,1,0-.09.08.08,0,0,1,0-.05l0,0h.37a1.14,1.14,0,0,0,.33,0,.61.61,0,0,0,.25-.14.5.5,0,0,0,.16-.22.61.61,0,0,0,.06-.28.52.52,0,0,0,0-.21.42.42,0,0,0-.11-.18.52.52,0,0,0-.19-.12.67.67,0,0,0-.26-.05.94.94,0,0,0-.3.05l-.25.11a.83.83,0,0,0-.17.11.22.22,0,0,1-.1,0h0l0,0s0,0,0-.06v-.18a.43.43,0,0,1,0,0l0-.05,0,0a.38.38,0,0,1,.11-.08l.2-.1a1.58,1.58,0,0,1,.28-.08,1.18,1.18,0,0,1,.34,0,1.23,1.23,0,0,1,.44.07.77.77,0,0,1,.32.18.7.7,0,0,1,.19.29.86.86,0,0,1,.07.36,1.07,1.07,0,0,1-.05.32.71.71,0,0,1-.13.26.8.8,0,0,1-.21.2,1,1,0,0,1-.3.11h0a1,1,0,0,1,.35.09,1,1,0,0,1,.27.19.78.78,0,0,1,.17.26A.72.72,0,0,1,26.94,173.62Z" transform="translate(-13.88 -5.01)"/></g></g><g class="cls-4"><g class="cls-8"><path d="M24.16,154.8a.4.4,0,0,1,0,.15.1.1,0,0,1-.08.05H22.88a.08.08,0,0,1-.07-.05.39.39,0,0,1,0-.3.07.07,0,0,1,.07,0H24.1a0,0,0,0,1,0,0,.14.14,0,0,1,0,.06A.28.28,0,0,1,24.16,154.8Z" transform="translate(-13.88 -5.01)"/><path d="M27,156v.09a.64.64,0,0,1,0,.07s0,0,0,0H24.77l-.05,0a.09.09,0,0,1,0-.07.31.31,0,0,1,0-.1v-.1s0-.06,0-.08l0-.06.05-.07.73-.75a4.87,4.87,0,0,0,.41-.47,3.74,3.74,0,0,0,.24-.37,2,2,0,0,0,.11-.31,2.46,2.46,0,0,0,0-.26.59.59,0,0,0,0-.23.62.62,0,0,0-.12-.19A.43.43,0,0,0,26,153a.76.76,0,0,0-.27-.05,1.07,1.07,0,0,0-.32.05l-.25.1a.83.83,0,0,0-.17.11.24.24,0,0,1-.11,0h0s0,0,0,0a.64.64,0,0,1,0-.07V153a.09.09,0,0,1,0-.05.05.05,0,0,1,0,0s0,0,0-.05l.12-.08a.69.69,0,0,1,.21-.1,1.71,1.71,0,0,1,.27-.09,1.73,1.73,0,0,1,.32,0,1.36,1.36,0,0,1,.47.08.91.91,0,0,1,.33.2.8.8,0,0,1,.19.3.94.94,0,0,1,.07.37,2.07,2.07,0,0,1,0,.35,1.65,1.65,0,0,1-.13.37,3.06,3.06,0,0,1-.29.45,5.89,5.89,0,0,1-.51.57l-.57.61H26.9l0,0s0,0,0,.06Z" transform="translate(-13.88 -5.01)"/></g></g><g class="cls-4"><g class="cls-8"><path d="M24.16,136.36a.49.49,0,0,1,0,.15.09.09,0,0,1-.08,0H22.88a.07.07,0,0,1-.07,0,.39.39,0,0,1,0-.3.07.07,0,0,1,.07,0H24.1a0,0,0,0,1,0,0,.11.11,0,0,1,0,.06A.22.22,0,0,1,24.16,136.36Z" transform="translate(-13.88 -5.01)"/><path d="M27,137.59a.22.22,0,0,1,0,.09.08.08,0,0,1,0,.06l0,0h-2l0,0s0,0,0-.06a.22.22,0,0,1,0-.09.19.19,0,0,1,0-.08s0,0,0-.06l0,0h.81v-2.78L25,135l-.09,0a0,0,0,0,1-.05,0,.16.16,0,0,1,0-.06v-.19s0,0,0-.06l0,0,0,0,.84-.54h0l0,0h.26l.07,0s0,0,0,0,0,0,0,0v3.21h.7a.08.08,0,0,1,0,0s0,0,0,.06Z" transform="translate(-13.88 -5.01)"/></g></g><g class="cls-4"><g class="cls-8"><path d="M27.09,117.51a3.57,3.57,0,0,1-.07.76,1.63,1.63,0,0,1-.22.6,1.07,1.07,0,0,1-.4.39,1.28,1.28,0,0,1-.61.14,1.24,1.24,0,0,1-.58-.13.88.88,0,0,1-.38-.36,1.58,1.58,0,0,1-.21-.59,4.66,4.66,0,0,1-.06-.8,3.64,3.64,0,0,1,.07-.76,1.7,1.7,0,0,1,.22-.6,1,1,0,0,1,.4-.39,1.28,1.28,0,0,1,.61-.14,1.24,1.24,0,0,1,.58.13.88.88,0,0,1,.38.36,1.58,1.58,0,0,1,.21.59A4.74,4.74,0,0,1,27.09,117.51Zm-.5,0c0-.18,0-.35,0-.49a1.89,1.89,0,0,0-.06-.38.76.76,0,0,0-.1-.29.6.6,0,0,0-.14-.2.52.52,0,0,0-.19-.11.69.69,0,0,0-.25,0,.61.61,0,0,0-.39.12.62.62,0,0,0-.23.31,1.47,1.47,0,0,0-.12.46,5.17,5.17,0,0,0,0,.57,4.72,4.72,0,0,0,0,.7,1.59,1.59,0,0,0,.13.46.59.59,0,0,0,.58.35.78.78,0,0,0,.28,0,.8.8,0,0,0,.21-.15.74.74,0,0,0,.14-.23,1.1,1.1,0,0,0,.09-.29,3.27,3.27,0,0,0,0-.35C26.59,117.81,26.59,117.68,26.59,117.54Z" transform="translate(-13.88 -5.01)"/></g></g><g class="cls-4"><g class="cls-8"><path d="M27,100.72s0,.06,0,.09l0,.06,0,0h-2l0,0s0,0,0-.06,0-.06,0-.09,0-.07,0-.09,0,0,0-.06l0,0h.81V97.74l-.71.42-.08,0s0,0-.06,0a.08.08,0,0,1,0-.06.31.31,0,0,1,0-.1v-.09s0,0,0-.05a.05.05,0,0,1,0,0l0,0,.84-.54h.4s0,0,0,0a0,0,0,0,1,0,0v3.21h.71l0,0s0,0,0,.06S27,100.68,27,100.72Z" transform="translate(-13.88 -5.01)"/></g></g><g class="cls-4"><g class="cls-8"><path d="M27,82.26s0,.06,0,.09,0,.05,0,.06,0,0,0,0l-.05,0H24.77a.1.1,0,0,1-.05,0,.16.16,0,0,1,0-.06.34.34,0,0,1,0-.11v-.09s0-.06,0-.08l0-.06A.13.13,0,0,1,24.8,82l.73-.75c.16-.18.3-.33.4-.47a2.9,2.9,0,0,0,.24-.38,1.6,1.6,0,0,0,.11-.3c0-.1,0-.18,0-.26a.59.59,0,0,0,0-.23.41.41,0,0,0-.12-.19.43.43,0,0,0-.19-.13.59.59,0,0,0-.27,0,.83.83,0,0,0-.32,0,1.33,1.33,0,0,0-.24.1l-.18.11a.24.24,0,0,1-.11,0h0l0,0a.64.64,0,0,1,0-.07V79.2a.07.07,0,0,1,0,0,.05.05,0,0,1,0,0l0,0a.81.81,0,0,1,.12-.08,1,1,0,0,1,.21-.1,1.84,1.84,0,0,1,.28-.09,1.55,1.55,0,0,1,.31,0,1.33,1.33,0,0,1,.47.07.93.93,0,0,1,.33.21.8.8,0,0,1,.19.3.94.94,0,0,1,.07.37,2.16,2.16,0,0,1,0,.35,1.65,1.65,0,0,1-.13.37,3.06,3.06,0,0,1-.29.45,7.26,7.26,0,0,1-.5.57l-.58.6h1.59l0,0,0,0s0,0,0,.06S27,82.22,27,82.26Z" transform="translate(-13.88 -5.01)"/></g></g><g class="cls-4"><g class="cls-8"><path d="M26.94,63a1.14,1.14,0,0,1-.09.46.94.94,0,0,1-.25.34,1,1,0,0,1-.4.22,1.59,1.59,0,0,1-.55.08,1.87,1.87,0,0,1-.34,0A1.63,1.63,0,0,1,25,64l-.21-.08c-.05,0-.09,0-.1-.07s0,0,0,0a.08.08,0,0,1,0,0s0,0,0-.07v-.1c0-.07,0-.12,0-.14a.05.05,0,0,1,.06,0,.27.27,0,0,1,.1,0l.2.1.28.1a1.28,1.28,0,0,0,.36,0,1.14,1.14,0,0,0,.33,0,.55.55,0,0,0,.24-.13.51.51,0,0,0,.15-.21.75.75,0,0,0,.05-.26.64.64,0,0,0-.06-.28.56.56,0,0,0-.19-.22.78.78,0,0,0-.29-.13,1.25,1.25,0,0,0-.4,0h-.41l0,0s0,0,0-.06a.31.31,0,0,1,0-.1.22.22,0,0,1,0-.09.08.08,0,0,1,0-.05l0,0h.36a1.11,1.11,0,0,0,.33,0,.92.92,0,0,0,.26-.14.57.57,0,0,0,.15-.22.64.64,0,0,0,.06-.28.57.57,0,0,0,0-.22.45.45,0,0,0-.11-.17.35.35,0,0,0-.19-.12.67.67,0,0,0-.26-.05.94.94,0,0,0-.3.05,1.33,1.33,0,0,0-.24.11.72.72,0,0,0-.18.1.17.17,0,0,1-.1.05h0l0,0s0,0,0-.06v-.18a.43.43,0,0,1,0,0s0,0,0-.05l0,0,.11-.08.2-.1.28-.09a1.79,1.79,0,0,1,.34,0,1.2,1.2,0,0,1,.44.07.77.77,0,0,1,.32.18.8.8,0,0,1,.2.28,1.06,1.06,0,0,1,.06.37,1.13,1.13,0,0,1-.05.32.71.71,0,0,1-.13.26,1,1,0,0,1-.21.2,1,1,0,0,1-.3.11h0a1.29,1.29,0,0,1,.35.1,1,1,0,0,1,.27.19.78.78,0,0,1,.17.26A.71.71,0,0,1,26.94,63Z" transform="translate(-13.88 -5.01)"/></g></g><g class="cls-4"><g class="cls-8"><path d="M27.12,44.55a.33.33,0,0,1,0,.15.09.09,0,0,1-.08,0H26.6v.77s0,0,0,0l0,0a.15.15,0,0,1-.08,0h-.23l-.08,0,0,0s0,0,0,0v-.77H24.57s0,0-.05,0a.08.08,0,0,1,0-.06s0-.07,0-.11a.31.31,0,0,1,0-.1.22.22,0,0,1,0-.08.14.14,0,0,1,0-.06l0-.07L25.87,42l0,0,.07,0,.1,0h.32l.11,0a.09.09,0,0,1,.07,0,.05.05,0,0,1,0,0v2.33H27a.09.09,0,0,1,.08,0A.28.28,0,0,1,27.12,44.55Zm-1-2.2h0l-1.17,2h1.18Z" transform="translate(-13.88 -5.01)"/></g></g><g class="cls-4"><g class="cls-8"><path d="M27,26a1.24,1.24,0,0,1-.1.52,1.21,1.21,0,0,1-.28.39,1.18,1.18,0,0,1-.43.23,1.63,1.63,0,0,1-.55.09,1.76,1.76,0,0,1-.33,0,1.07,1.07,0,0,1-.27-.06.69.69,0,0,1-.19-.07L24.7,27l0,0s0,0,0,0,0,0,0-.06a.22.22,0,0,1,0-.09.19.19,0,0,1,0-.08s0-.05,0-.06l0,0h0l.09,0,.16.08.25.08a1.78,1.78,0,0,0,.35,0,1.29,1.29,0,0,0,.35,0,.77.77,0,0,0,.27-.14.61.61,0,0,0,.18-.24,1,1,0,0,0,.07-.36.78.78,0,0,0-.06-.31.52.52,0,0,0-.17-.22.78.78,0,0,0-.29-.13,1.61,1.61,0,0,0-.42-.05l-.29,0-.23,0a.15.15,0,0,1-.12,0,.22.22,0,0,1,0-.14V23.68a.2.2,0,0,1,0-.14.17.17,0,0,1,.13,0h1.66s0,0,0,0a.14.14,0,0,0,0,.06v.1a.63.63,0,0,1,0,.16.1.1,0,0,1-.08.05H25.31v1l.2,0h.23a1.7,1.7,0,0,1,.53.07,1,1,0,0,1,.37.21,1,1,0,0,1,.23.34A1.18,1.18,0,0,1,27,26Z" transform="translate(-13.88 -5.01)"/></g></g><g class="cls-4"><g class="cls-8"><path d="M27.06,7.53A1.43,1.43,0,0,1,27,8a1.23,1.23,0,0,1-.23.4,1.13,1.13,0,0,1-.39.27,1.32,1.32,0,0,1-.55.1,1.56,1.56,0,0,1-.4,0,1,1,0,0,1-.31-.16.75.75,0,0,1-.21-.26,1.22,1.22,0,0,1-.14-.35,2.61,2.61,0,0,1-.08-.42c0-.16,0-.32,0-.5a3.87,3.87,0,0,1,0-.48,1.79,1.79,0,0,1,.09-.46A1.94,1.94,0,0,1,25,5.66a1.54,1.54,0,0,1,.28-.34,1.31,1.31,0,0,1,.4-.23A1.55,1.55,0,0,1,26.18,5h.21l.2,0,.15,0,.08,0,0,0s0,0,0,0a.09.09,0,0,0,0,0v.15a.35.35,0,0,1,0,.06l0,0h0l-.08,0-.13,0-.19,0-.25,0a.88.88,0,0,0-.45.11.86.86,0,0,0-.31.29,1.33,1.33,0,0,0-.18.42,2.62,2.62,0,0,0-.07.5l.17-.09.2-.08.23,0,.26,0a1.25,1.25,0,0,1,.5.08,1,1,0,0,1,.33.22,1,1,0,0,1,.18.34A1.86,1.86,0,0,1,27.06,7.53Zm-.49,0a1.39,1.39,0,0,0,0-.3.65.65,0,0,0-.11-.22.47.47,0,0,0-.21-.15.91.91,0,0,0-.31-.05l-.21,0-.2,0L25.31,7l-.16.09a3.4,3.4,0,0,0,.05.61,1.17,1.17,0,0,0,.13.4.62.62,0,0,0,.22.21.79.79,0,0,0,.32.06.62.62,0,0,0,.31-.07.55.55,0,0,0,.22-.18.79.79,0,0,0,.13-.26A1.35,1.35,0,0,0,26.57,7.57Z" transform="translate(-13.88 -5.01)"/></g></g><g class="cls-4"><g class="cls-8"><path d="M19.88,111.71a.16.16,0,0,1,.08.05.19.19,0,0,1,.05.09,1.06,1.06,0,0,1,0,.14v.38s0,.09,0,.13,0,.06,0,.09l0,.06,0,0-.06,0-5.3,1.86a.34.34,0,0,1-.15,0,.1.1,0,0,1-.09,0,.19.19,0,0,1,0-.12,1.63,1.63,0,0,1,0-.24,1.15,1.15,0,0,1,0-.2.31.31,0,0,1,0-.11.1.1,0,0,1,0-.06l.07,0,4.8-1.63h0l-4.79-1.59a.19.19,0,0,1-.08,0,.1.1,0,0,1,0-.06.37.37,0,0,1,0-.12,2.32,2.32,0,0,1,0-.43.23.23,0,0,1,0-.11s.05,0,.09,0l.16,0Z" transform="translate(-13.88 -5.01)"/><path d="M17.88,105.71a2.82,2.82,0,0,1,.89.13,1.82,1.82,0,0,1,.7.38,1.71,1.71,0,0,1,.46.63,2.23,2.23,0,0,1,.17.88,2.28,2.28,0,0,1-.15.86,1.42,1.42,0,0,1-.42.6,1.8,1.8,0,0,1-.67.36,3.4,3.4,0,0,1-1.79,0,2,2,0,0,1-.71-.38,1.69,1.69,0,0,1-.45-.63,2.45,2.45,0,0,1,0-1.74,1.66,1.66,0,0,1,.42-.61,1.88,1.88,0,0,1,.67-.36A3.16,3.16,0,0,1,17.88,105.71Zm.05.75a2.93,2.93,0,0,0-.61.06,1.5,1.5,0,0,0-.5.2.93.93,0,0,0-.34.37,1.2,1.2,0,0,0-.13.59,1.22,1.22,0,0,0,.12.56,1,1,0,0,0,.32.38,1.48,1.48,0,0,0,.49.23,3.12,3.12,0,0,0,.63.07,2.93,2.93,0,0,0,.61-.06,1.5,1.5,0,0,0,.5-.2,1,1,0,0,0,.34-.38,1.13,1.13,0,0,0,.13-.58,1.22,1.22,0,0,0-.12-.56,1,1,0,0,0-.32-.39,1.47,1.47,0,0,0-.49-.22A3,3,0,0,0,17.93,106.46Z" transform="translate(-13.88 -5.01)"/><path d="M19.91,103.89l.05,0A.1.1,0,0,1,20,104a.27.27,0,0,1,0,.11.92.92,0,0,1,0,.18,1,1,0,0,1,0,.18.36.36,0,0,1,0,.11.08.08,0,0,1-.05,0l-.05,0H14l-.06,0a.07.07,0,0,1,0,0,.2.2,0,0,1,0-.11,1,1,0,0,1,0-.18.92.92,0,0,1,0-.18.16.16,0,0,1,0-.11.09.09,0,0,1,0-.06l.06,0Z" transform="translate(-13.88 -5.01)"/><path d="M19.61,100.48l.21,0a.28.28,0,0,1,.11,0,.36.36,0,0,1,.06.11.6.6,0,0,1,.05.16,1.06,1.06,0,0,1,0,.19,1.34,1.34,0,0,1,0,.2,1.64,1.64,0,0,1-.08.53.86.86,0,0,1-.25.36,1.18,1.18,0,0,1-.42.21,2.55,2.55,0,0,1-.59.06H16.43v.55a.12.12,0,0,1-.07.11.45.45,0,0,1-.23,0H16l-.09,0a.1.1,0,0,1-.06,0,.13.13,0,0,1,0-.06v-.55h-.95l-.05,0a.12.12,0,0,1-.05,0,1,1,0,0,1,0-.12s0-.1,0-.17,0-.14,0-.18a.53.53,0,0,1,0-.11.1.1,0,0,1,.05-.06l.05,0h.95v-1a.13.13,0,0,1,0-.06.15.15,0,0,1,.06,0,.12.12,0,0,1,.09,0h.14a.45.45,0,0,1,.23,0c.05,0,.07.06.07.1v1h2.21a1.28,1.28,0,0,0,.62-.12.45.45,0,0,0,.21-.43.9.9,0,0,0,0-.18,1.27,1.27,0,0,0,0-.14l0-.11a.13.13,0,0,1,0-.08.06.06,0,0,1,0,0s0,0,0,0l.08,0Z" transform="translate(-13.88 -5.01)"/><path d="M19.91,96.62a.08.08,0,0,1,.08,0,.19.19,0,0,1,0,.09,1,1,0,0,1,0,.19,1,1,0,0,1,0,.18.23.23,0,0,1,0,.1.1.1,0,0,1-.08,0h-.4a1.9,1.9,0,0,1,.44.58,1.56,1.56,0,0,1,.15.67,2,2,0,0,1-.08.57,1.37,1.37,0,0,1-.24.43,1.08,1.08,0,0,1-.38.28,1.36,1.36,0,0,1-.51.1,1.21,1.21,0,0,1-.58-.14,1.17,1.17,0,0,1-.41-.39,1.8,1.8,0,0,1-.24-.63,3.49,3.49,0,0,1-.08-.83v-.54h-.31a1.68,1.68,0,0,0-.41,0,.81.81,0,0,0-.29.16.68.68,0,0,0-.18.28,1.25,1.25,0,0,0-.06.42,1.43,1.43,0,0,0,.07.48,2.35,2.35,0,0,0,.14.38c.05.11.1.2.14.27a.35.35,0,0,1,.06.16.13.13,0,0,1,0,.06l-.06.05-.09,0h-.29a.2.2,0,0,1-.12-.08.74.74,0,0,1-.14-.2,2.18,2.18,0,0,1-.14-.34,2.53,2.53,0,0,1-.15-.86,2.52,2.52,0,0,1,.1-.73,1.13,1.13,0,0,1,.28-.48,1,1,0,0,1,.47-.27,2.08,2.08,0,0,1,.65-.09Zm-1.81.73V98a2.62,2.62,0,0,0,0,.52,1,1,0,0,0,.15.36.71.71,0,0,0,.24.22.79.79,0,0,0,.32.06.64.64,0,0,0,.49-.19.79.79,0,0,0,.18-.55,1.08,1.08,0,0,0-.14-.53,2.25,2.25,0,0,0-.45-.51Z" transform="translate(-13.88 -5.01)"/><path d="M16.12,92a.41.41,0,0,1,.22,0c.05,0,.07.06.07.1v.57a.91.91,0,0,1,.35-.21,1.34,1.34,0,0,1,.4-.06,1.48,1.48,0,0,1,.61.11,1.17,1.17,0,0,1,.45.31,1.57,1.57,0,0,1,.28.49,2,2,0,0,1,.09.62,1.7,1.7,0,0,1-.06.46,1,1,0,0,1-.16.34.59.59,0,0,0,.18.13.56.56,0,0,0,.23.05.31.31,0,0,0,.26-.14.71.71,0,0,0,.11-.38l0-1a2.92,2.92,0,0,1,.08-.54,1.44,1.44,0,0,1,.21-.43,1,1,0,0,1,.33-.28,1,1,0,0,1,.46-.1,1.35,1.35,0,0,1,.52.11,1.3,1.3,0,0,1,.43.35,1.83,1.83,0,0,1,.3.61,3.13,3.13,0,0,1,.1.86,3.3,3.3,0,0,1-.08.82,1.86,1.86,0,0,1-.22.55.83.83,0,0,1-.34.31,1,1,0,0,1-.7.06,1,1,0,0,1-.26-.1.88.88,0,0,1-.24-.19,2.61,2.61,0,0,1-.22-.24.89.89,0,0,1-.28.32.75.75,0,0,1-.36.1,1.06,1.06,0,0,1-.48-.11,2.16,2.16,0,0,1-.38-.27,1.23,1.23,0,0,1-.37.21,1.4,1.4,0,0,1-.49.08,1.66,1.66,0,0,1-.61-.11,1.52,1.52,0,0,1-.46-.32,1.57,1.57,0,0,1-.28-.49,1.75,1.75,0,0,1-.1-.62,3.25,3.25,0,0,1,0-.33,1.33,1.33,0,0,1,.06-.3v-1.2A.13.13,0,0,1,15.9,92,.61.61,0,0,1,16.12,92Zm1.05,1.13a.94.94,0,0,0-.64.22.86.86,0,0,0-.22.64.8.8,0,0,0,.07.36.57.57,0,0,0,.19.26,1,1,0,0,0,.28.16,1.27,1.27,0,0,0,.34,0,.84.84,0,0,0,.62-.22A.85.85,0,0,0,18,94a1,1,0,0,0-.06-.37.73.73,0,0,0-.19-.26,1.12,1.12,0,0,0-.28-.16A1.26,1.26,0,0,0,17.17,93.11Zm3.14-.36a.45.45,0,0,0-.4.21,1.1,1.1,0,0,0-.15.56l0,1a1.6,1.6,0,0,0,.21.23.77.77,0,0,0,.19.14.71.71,0,0,0,.18.08h.18a.45.45,0,0,0,.43-.29,1.77,1.77,0,0,0,.15-.81,1.75,1.75,0,0,0-.07-.55.86.86,0,0,0-.17-.36.61.61,0,0,0-.24-.19A.67.67,0,0,0,20.31,92.75Z" transform="translate(-13.88 -5.01)"/><path d="M17.75,87.74a.3.3,0,0,1,.25.09.32.32,0,0,1,.07.19v2.61a2.61,2.61,0,0,0,.59-.06,1.31,1.31,0,0,0,.46-.22,1.13,1.13,0,0,0,.29-.41,1.51,1.51,0,0,0,.1-.6,2.59,2.59,0,0,0-.05-.51,3,3,0,0,0-.1-.38c0-.11-.07-.2-.1-.27a.5.5,0,0,1-.05-.15.07.07,0,0,1,0-.06s0,0,0,0l.09,0h.31l.06,0a.1.1,0,0,0,.05,0,1.16,1.16,0,0,1,.07.15,1.37,1.37,0,0,1,.11.31,3.45,3.45,0,0,1,.1.43,3.08,3.08,0,0,1,0,.53,2.46,2.46,0,0,1-.14.86,1.55,1.55,0,0,1-.4.62,1.8,1.8,0,0,1-.68.38,3.28,3.28,0,0,1-.94.13,2.91,2.91,0,0,1-.92-.14,1.78,1.78,0,0,1-.69-.38,1.54,1.54,0,0,1-.43-.6,1.83,1.83,0,0,1-.16-.79,1.89,1.89,0,0,1,.15-.79,1.49,1.49,0,0,1,.41-.54,1.58,1.58,0,0,1,.59-.31,2.48,2.48,0,0,1,.73-.1Zm-.21.73a1.29,1.29,0,0,0-.9.26.94.94,0,0,0-.33.79,1.06,1.06,0,0,0,.1.48,1.13,1.13,0,0,0,.27.34,1.22,1.22,0,0,0,.39.21,1.45,1.45,0,0,0,.47.08Z" transform="translate(-13.88 -5.01)"/><path d="M18.83,84.15a1.19,1.19,0,0,1,.54.12,1,1,0,0,1,.4.32,1.42,1.42,0,0,1,.25.49,2.47,2.47,0,0,1,.08.63,2.6,2.6,0,0,1,0,.4,3,3,0,0,1-.09.35,2.16,2.16,0,0,1-.1.25.91.91,0,0,1-.1.16.32.32,0,0,1-.13.07l-.21,0H19.3l-.09,0a.09.09,0,0,1-.06,0,.07.07,0,0,1,0,0,.37.37,0,0,1,.06-.15c0-.06.08-.14.13-.23a1.75,1.75,0,0,0,.13-.33,1.4,1.4,0,0,0,.06-.43,1.67,1.67,0,0,0,0-.34,1,1,0,0,0-.12-.26.61.61,0,0,0-.19-.17.65.65,0,0,0-.29-.06.45.45,0,0,0-.28.09.92.92,0,0,0-.2.23,2.25,2.25,0,0,0-.16.31c0,.12-.09.24-.14.37s-.11.24-.17.36a1.24,1.24,0,0,1-.23.32,1.14,1.14,0,0,1-.33.23,1.17,1.17,0,0,1-.45.08,1.13,1.13,0,0,1-.45-.09,1,1,0,0,1-.37-.27,1.24,1.24,0,0,1-.26-.45,2,2,0,0,1-.1-.63,1.73,1.73,0,0,1,0-.32,1.91,1.91,0,0,1,.07-.28.93.93,0,0,1,.08-.22l.08-.14.06-.06.06,0,.09,0h.24l.09,0,.06,0a.09.09,0,0,1,0,0,.28.28,0,0,1-.05.12l-.1.19a2.74,2.74,0,0,0-.11.28,1.4,1.4,0,0,0,0,.37,1,1,0,0,0,0,.32.62.62,0,0,0,.12.23.49.49,0,0,0,.18.14.59.59,0,0,0,.23,0,.48.48,0,0,0,.29-.09.9.9,0,0,0,.2-.23,1.91,1.91,0,0,0,.16-.32l.15-.37c.05-.12.1-.25.16-.37a1.54,1.54,0,0,1,.23-.32.94.94,0,0,1,.32-.23A1,1,0,0,1,18.83,84.15Z" transform="translate(-13.88 -5.01)"/></g></g><g class="cls-9"><polygon class="cls-10" points="43.14 13.69 66.97 13.69 66.97 30.35 43.14 30.35 43.14 13.69 43.14 13.69"/><polygon class="cls-11" points="43.14 13.69 66.97 13.69 66.97 30.35 43.14 30.35 43.14 13.69 43.14 13.69"/><g class="cls-9"><polygon class="cls-10" points="199.12 13.69 222.87 13.69 222.87 30.35 199.12 30.35 199.12 13.69 199.12 13.69"/><polygon class="cls-11" points="199.12 13.69 222.87 13.69 222.87 30.35 199.12 30.35 199.12 13.69 199.12 13.69"/><g class="cls-9"><polygon class="cls-10" points="338.53 13.69 362.28 13.69 362.28 30.35 338.53 30.35 338.53 13.69 338.53 13.69"/><polygon class="cls-11" points="338.53 13.69 362.28 13.69 362.28 30.35 338.53 30.35 338.53 13.69 338.53 13.69"/></g></g></g></g></g></svg>