<svg id="Layer_1" data-name="Layer 1" xmlns="http://www.w3.org/2000/svg" xmlns:xlink="http://www.w3.org/1999/xlink" viewBox="0 0 481.52 119.96"><defs><style>.cls-1,.cls-10,.cls-13,.cls-3,.cls-5,.cls-6,.cls-8{fill:none;}.cls-2{clip-path:url(#clip-path);}.cls-13,.cls-3,.cls-5,.cls-6,.cls-8{stroke:#000;stroke-linecap:round;}.cls-10,.cls-13,.cls-3,.cls-5,.cls-6,.cls-8{stroke-miterlimit:10;}.cls-3,.cls-5,.cls-6{stroke-width:2.12px;}.cls-4{fill:#fff;}.cls-5{stroke-dasharray:2.54 6.35 7.62 8.47 2.54 10.59;}.cls-6{stroke-dasharray:0 5.08 3.39 10.16 5.93 5.08;}.cls-7{clip-path:url(#clip-path-3);}.cls-8{stroke-width:2.96px;}.cls-9{fill:#333;}.cls-10{stroke:#00a14b;stroke-width:3px;}.cls-11{fill:#00a14b;}.cls-12{clip-path:url(#clip-path-5);}.cls-13{stroke-width:2.09px;}</style><clipPath id="clip-path" transform="translate(0 0)"><rect class="cls-1" x="367.61" y="24.76" width="113.91" height="70.44"/></clipPath><clipPath id="clip-path-3" transform="translate(0 0)"><rect class="cls-1" width="78.9" height="119.96"/></clipPath><clipPath id="clip-path-5" transform="translate(0 0)"><rect class="cls-1" x="176.77" y="25.71" width="112.36" height="69.49"/></clipPath></defs><g class="cls-2"><g class="cls-2"><path d="M378.69,72.74l10.21-40.5h8.93l10.26,40.5H401l-2.22-9.82H388l-2.22,9.82Zm10.6-15.48h8.21l-2.44-10.87c-.41-1.81-.76-3.45-1.06-4.91s-.5-2.52-.61-3.19c-.11.67-.31,1.73-.61,3.19s-.65,3.08-1,4.85Z" transform="translate(0 0)"/><path d="M447.47,72.74V32.24h12a15.24,15.24,0,0,1,7.13,1.58,11.61,11.61,0,0,1,4.69,4.41A12.91,12.91,0,0,1,473,44.89V60a13,13,0,0,1-1.66,6.69,11.54,11.54,0,0,1-4.69,4.44,15.24,15.24,0,0,1-7.13,1.58Zm6.94-6.22h5.1a6.51,6.51,0,0,0,4.77-1.74A6.39,6.39,0,0,0,466.06,60V44.89a6.31,6.31,0,0,0-1.78-4.69,6.51,6.51,0,0,0-4.77-1.74h-5.1Z" transform="translate(0 0)"/><path class="cls-3" d="M370.07,81.59c4.52,10.22,7.24,12.55,10.53,12.51C386.11,94,387.81,80,392.86,80s7.11,14.14,12,14.14c3.25,0,6.15-2.61,9.52-12.47" transform="translate(0 0)"/><path class="cls-4" d="M368.1,82.6A2.23,2.23,0,1,1,371,83.74a2.23,2.23,0,0,1-2.94-1.14" transform="translate(0 0)"/><path d="M367.83,82.72a2.52,2.52,0,1,0,1.28-3.33,2.53,2.53,0,0,0-1.28,3.33c.56,1.27-.57-1.27,0,0m4.07-1.8a1.93,1.93,0,1,1-2.55-1,1.94,1.94,0,0,1,2.55,1c.43,1-.43-1,0,0" transform="translate(0 0)"/><path class="cls-4" d="M416.42,82.5a2.23,2.23,0,1,0-2.83,1.39,2.24,2.24,0,0,0,2.83-1.39" transform="translate(0 0)"/><path d="M416.7,82.59a2.52,2.52,0,1,1-1.58-3.2,2.53,2.53,0,0,1,1.58,3.2h0m-4.22-1.43A1.93,1.93,0,1,0,414.93,80a1.93,1.93,0,0,0-2.45,1.21c-.35,1,.34-1,0,0" transform="translate(0 0)"/><line class="cls-5" x1="436.75" y1="84.28" x2="480.46" y2="84.28"/><line class="cls-6" x1="435.44" y1="91.66" x2="479.15" y2="91.66"/></g><path d="M409.92,53.47l5.13-11.56h3.56l5.06,11.56h-3.46l-2.73-6.82c-.16-.41-.29-.81-.4-1.2s-.18-.68-.22-.87l-.27.87c-.12.39-.26.79-.41,1.2l-2.82,6.82Z" transform="translate(0 0)"/><path d="M427.94,61.89V58.48l8.6-4a11.14,11.14,0,0,1,1.17-.44l.9-.27c-.21,0-.52-.11-.91-.22a6.72,6.72,0,0,1-1.16-.43l-8.6-4V45.67l13.28,6.26v3.7Z" transform="translate(0 0)"/></g><g class="cls-7"><g class="cls-7"><line class="cls-8" x1="1.48" y1="12.76" x2="21.64" y2="12.43"/><line class="cls-8" x1="1.74" y1="28.56" x2="21.89" y2="28.24"/><line class="cls-8" x1="1.78" y1="92.9" x2="21.93" y2="92.58"/><line class="cls-8" x1="1.78" y1="109.13" x2="21.93" y2="108.8"/><line class="cls-8" x1="1.67" y1="76.55" x2="21.83" y2="76.22"/><line class="cls-8" x1="1.67" y1="60.46" x2="21.83" y2="60.14"/><line class="cls-8" x1="1.57" y1="44.52" x2="21.73" y2="44.19"/><path d="M73.82,91.49H22.2a5.09,5.09,0,0,1-5.08-5.08V34.8a5.1,5.1,0,0,1,5.08-5.08H73.82A5.1,5.1,0,0,1,78.9,34.8V86.41a5.09,5.09,0,0,1-5.08,5.08" transform="translate(0 0)"/><path class="cls-9" d="M48.59,60c0,32.4-28.19,61.12-33.11,59.94-3.51-.83,1.65-13.11,1.65-56.54S12,.87,15.48,0C20.4-1.14,48.59,27.58,48.59,60" transform="translate(0 0)"/></g></g><line class="cls-10" x1="85.45" y1="59.98" x2="149.04" y2="59.98"/><polygon class="cls-11" points="170.22 59.98 140.37 72.17 147.45 59.98 140.37 47.78 170.22 59.98"/><g class="cls-12"><g class="cls-12"><path d="M187.7,73,197.77,33.1h8.81L216.7,73h-7l-2.19-9.68H196.89L194.7,73Zm10.45-15.26h8.1l-2.41-10.73c-.4-1.78-.75-3.4-1-4.84s-.49-2.49-.6-3.15q-.16,1-.6,3.15c-.3,1.44-.64,3-1,4.79Z" transform="translate(0 0)"/><path d="M221.68,73V33.1h8.1l3.83,12.69c.4,1.28.72,2.44.95,3.48s.39,1.81.47,2.32c.07-.51.23-1.28.46-2.32s.56-2.2,1-3.48l3.78-12.69h8.15V73H242V56.24c0-3.68.14-7.1.44-10.25s.61-6.16,1-9L238,55.86h-6l-5.47-18.49q.54,3.83,1,8.4a98.33,98.33,0,0,1,.49,10.47V73Z" transform="translate(0 0)"/><path d="M255.66,73V33.1H269a15.12,15.12,0,0,1,7,1.53,11.17,11.17,0,0,1,4.62,4.3,12.38,12.38,0,0,1,1.64,6.48,12.38,12.38,0,0,1-1.64,6.48,11.1,11.1,0,0,1-4.62,4.3,15.12,15.12,0,0,1-7,1.53H262.5V73ZM262.5,51.7H269a6.1,6.1,0,0,0,4.6-1.75,6.24,6.24,0,0,0,1.69-4.54,6.25,6.25,0,0,0-1.69-4.54,6.1,6.1,0,0,0-4.6-1.75H262.5Z" transform="translate(0 0)"/><path class="cls-13" d="M182.06,84.38c2.1,1.85,4.9,2.38,7.94,2.3,5-.13,6-4.06,11-4.1,5.5,0,7.13,5.3,12.28,5.18,5.62-.14,7.81-8.18,12.72-8,5.11.21,6.48,10.9,11.21,11,5.18.11,7.08-15.36,12.08-15.3,5.21.06,9.16,16.77,14.44,17,5.86.29,8.18-23.26,14-23.28,2.55,0,5.32,1.27,9.23,13.69" transform="translate(0 0)"/><path class="cls-4" d="M180.5,85.9a2.2,2.2,0,1,1,3.1.21,2.19,2.19,0,0,1-3.1-.21" transform="translate(0 0)"/><path d="M180.28,86.1a2.49,2.49,0,1,0,.24-3.52,2.49,2.49,0,0,0-.24,3.52h0m3.31-2.9A1.91,1.91,0,1,1,180.9,83a1.91,1.91,0,0,1,2.69.18h0" transform="translate(0 0)"/><path class="cls-4" d="M284.81,83.46a2.2,2.2,0,1,0,1.43-2.76,2.19,2.19,0,0,0-1.43,2.76" transform="translate(0 0)"/><path d="M284.53,83.55a2.49,2.49,0,1,1,3.13,1.62,2.49,2.49,0,0,1-3.13-1.62h0m4.19-1.33a1.9,1.9,0,1,0-1.24,2.39,1.91,1.91,0,0,0,1.24-2.39h0" transform="translate(0 0)"/></g></g><line class="cls-10" x1="289.13" y1="59.98" x2="352.72" y2="59.98"/><polygon class="cls-11" points="373.9 59.98 344.06 72.17 351.14 59.98 344.06 47.78 373.9 59.98"/></svg>