<svg id="Layer_1" data-name="Layer 1" xmlns="http://www.w3.org/2000/svg" xmlns:xlink="http://www.w3.org/1999/xlink" viewBox="0 0 284.13 510.72"><defs><style>.cls-1,.cls-10,.cls-3,.cls-5,.cls-6,.cls-8{fill:none;}.cls-2{clip-path:url(#clip-path);}.cls-3,.cls-5,.cls-6,.cls-8{stroke:#000;stroke-linecap:round;}.cls-10,.cls-3,.cls-5,.cls-6,.cls-8{stroke-miterlimit:10;}.cls-3,.cls-5,.cls-6{stroke-width:2.12px;}.cls-4{fill:#fff;}.cls-5{stroke-dasharray:2.54 6.35 7.62 8.47 2.54 10.59;}.cls-6{stroke-dasharray:0 5.08 3.39 10.16 5.93 5.08;}.cls-7{clip-path:url(#clip-path-3);}.cls-8{stroke-width:2.96px;}.cls-9{fill:#333;}.cls-10{stroke:#00a14b;stroke-width:3px;}.cls-11{fill:#00a14b;}.cls-12{clip-path:url(#clip-path-5);}.cls-13{clip-path:url(#clip-path-7);}.cls-14{clip-path:url(#clip-path-9);}.cls-15{clip-path:url(#clip-path-11);}.cls-16{clip-path:url(#clip-path-13);}.cls-17{clip-path:url(#clip-path-15);}</style><clipPath id="clip-path" transform="translate(0 0)"><rect class="cls-1" x="170.22" y="24.76" width="113.91" height="70.44"/></clipPath><clipPath id="clip-path-3" transform="translate(0 0)"><rect class="cls-1" width="78.9" height="119.96"/></clipPath><clipPath id="clip-path-5" transform="translate(0 0)"><rect class="cls-1" x="170.22" y="155.16" width="113.91" height="70.44"/></clipPath><clipPath id="clip-path-7" transform="translate(0 0)"><rect class="cls-1" y="130.41" width="78.9" height="119.96"/></clipPath><clipPath id="clip-path-9" transform="translate(0 0)"><rect class="cls-1" x="170.22" y="285.59" width="113.91" height="70.44"/></clipPath><clipPath id="clip-path-11" transform="translate(0 0)"><rect class="cls-1" y="260.83" width="78.9" height="119.96"/></clipPath><clipPath id="clip-path-13" transform="translate(0 0)"><rect class="cls-1" x="170.22" y="415.52" width="113.91" height="70.44"/></clipPath><clipPath id="clip-path-15" transform="translate(0 0)"><rect class="cls-1" y="390.76" width="78.9" height="119.96"/></clipPath></defs><g class="cls-2"><g class="cls-2"><path d="M181.3,72.74l10.21-40.5h8.93l10.26,40.5h-7.1l-2.22-9.82H190.62l-2.22,9.82Zm10.59-15.48h8.21l-2.44-10.87c-.4-1.81-.76-3.45-1-4.91s-.5-2.52-.61-3.19c-.11.67-.32,1.73-.61,3.19s-.65,3.08-1,4.85Z" transform="translate(0 0)"/><path d="M250.08,72.74V32.24h12a15.24,15.24,0,0,1,7.13,1.58,11.58,11.58,0,0,1,4.68,4.41,12.91,12.91,0,0,1,1.67,6.66V60a13.05,13.05,0,0,1-1.67,6.69,11.52,11.52,0,0,1-4.68,4.44,15.24,15.24,0,0,1-7.13,1.58ZM257,66.52h5.1a6.51,6.51,0,0,0,4.77-1.74A6.38,6.38,0,0,0,268.66,60V44.89a6.3,6.3,0,0,0-1.77-4.69,6.51,6.51,0,0,0-4.77-1.74H257Z" transform="translate(0 0)"/><path class="cls-3" d="M172.67,81.59c4.53,10.22,7.25,12.55,10.53,12.51C188.72,94,190.42,80,195.47,80s7.11,14.14,12,14.14c3.25,0,6.15-2.61,9.52-12.47" transform="translate(0 0)"/><path class="cls-4" d="M170.71,82.6a2.23,2.23,0,1,1,2.94,1.14,2.23,2.23,0,0,1-2.94-1.14" transform="translate(0 0)"/><path d="M170.43,82.72a2.53,2.53,0,1,0,1.29-3.33,2.55,2.55,0,0,0-1.29,3.33c.57,1.27-.56-1.27,0,0m4.08-1.8a1.93,1.93,0,1,1-2.55-1,1.94,1.94,0,0,1,2.55,1c.43,1-.43-1,0,0" transform="translate(0 0)"/><path class="cls-4" d="M219,82.5a2.23,2.23,0,1,0-2.83,1.39A2.24,2.24,0,0,0,219,82.5" transform="translate(0 0)"/><path d="M219.31,82.59a2.53,2.53,0,1,1-1.58-3.2,2.53,2.53,0,0,1,1.58,3.2c-.45,1.32.44-1.32,0,0m-4.22-1.43a1.92,1.92,0,0,0,1.2,2.45,1.93,1.93,0,1,0-1.2-2.45c-.35,1,.34-1,0,0" transform="translate(0 0)"/><line class="cls-5" x1="239.36" y1="84.28" x2="283.07" y2="84.28"/><line class="cls-6" x1="238.05" y1="91.66" x2="281.76" y2="91.66"/></g><path d="M212.53,53.47l5.13-11.56h3.56l5.06,11.56h-3.46l-2.73-6.82c-.16-.41-.29-.81-.4-1.2s-.18-.68-.22-.87l-.27.87q-.18.59-.42,1.2L216,53.47Z" transform="translate(0 0)"/><path d="M230.55,61.89V58.48l8.6-4a11.14,11.14,0,0,1,1.17-.44l.9-.27c-.21,0-.52-.11-.92-.22a6.94,6.94,0,0,1-1.15-.43l-8.6-4V45.67l13.28,6.26v3.7Z" transform="translate(0 0)"/></g><g class="cls-7"><g class="cls-7"><line class="cls-8" x1="1.48" y1="12.76" x2="21.64" y2="12.43"/><line class="cls-8" x1="1.74" y1="28.56" x2="21.89" y2="28.24"/><line class="cls-8" x1="1.78" y1="92.9" x2="21.93" y2="92.58"/><line class="cls-8" x1="1.78" y1="109.13" x2="21.93" y2="108.8"/><line class="cls-8" x1="1.67" y1="76.55" x2="21.83" y2="76.22"/><line class="cls-8" x1="1.67" y1="60.46" x2="21.83" y2="60.14"/><line class="cls-8" x1="1.57" y1="44.52" x2="21.73" y2="44.19"/><path d="M73.82,91.49H22.2a5.09,5.09,0,0,1-5.08-5.08V34.8a5.1,5.1,0,0,1,5.08-5.08H73.82A5.1,5.1,0,0,1,78.9,34.8V86.41a5.09,5.09,0,0,1-5.08,5.08" transform="translate(0 0)"/><path class="cls-9" d="M48.59,60c0,32.4-28.19,61.12-33.11,59.94-3.51-.83,1.65-13.11,1.65-56.54S12,.87,15.48,0C20.4-1.14,48.59,27.58,48.59,60" transform="translate(0 0)"/></g></g><line class="cls-10" x1="85.45" y1="59.98" x2="149.04" y2="59.98"/><polygon class="cls-11" points="170.22 59.98 140.37 72.17 147.45 59.98 140.37 47.78 170.22 59.98"/><g class="cls-12"><g class="cls-12"><path d="M181.3,203.15l10.21-40.5h8.93l10.26,40.5h-7.1l-2.22-9.82H190.62l-2.22,9.82Zm10.59-15.48h8.21l-2.44-10.87c-.4-1.81-.76-3.45-1-4.91s-.5-2.53-.61-3.19c-.11.66-.32,1.73-.61,3.19s-.65,3.08-1,4.85Z" transform="translate(0 0)"/><path d="M250.08,203.15v-40.5h12a15.24,15.24,0,0,1,7.13,1.58,11.58,11.58,0,0,1,4.68,4.41,12.91,12.91,0,0,1,1.67,6.66v15.14a13.08,13.08,0,0,1-1.67,6.69,11.43,11.43,0,0,1-4.68,4.43,15.12,15.12,0,0,1-7.13,1.59Zm6.94-6.22h5.1a6.51,6.51,0,0,0,4.77-1.74,6.38,6.38,0,0,0,1.77-4.75V175.3a6.3,6.3,0,0,0-1.77-4.69,6.51,6.51,0,0,0-4.77-1.75H257Z" transform="translate(0 0)"/><path class="cls-3" d="M172.67,212c4.53,10.22,7.25,12.55,10.53,12.51,5.52-.06,7.22-14.12,12.27-14.1s7.11,14.14,12,14.14c3.25,0,6.15-2.62,9.52-12.47" transform="translate(0 0)"/><path class="cls-4" d="M170.71,213a2.23,2.23,0,1,1,2.94,1.14,2.23,2.23,0,0,1-2.94-1.14" transform="translate(0 0)"/><path d="M170.43,213.13a2.53,2.53,0,1,0,4.62-2,2.53,2.53,0,0,0-4.62,2c.57,1.27-.56-1.28,0,0m4.08-1.8a1.93,1.93,0,1,1-2.55-1,1.93,1.93,0,0,1,2.55,1c.43,1-.43-1,0,0" transform="translate(0 0)"/><path class="cls-4" d="M219,212.91a2.23,2.23,0,1,0-2.83,1.39,2.23,2.23,0,0,0,2.83-1.39" transform="translate(0 0)"/><path d="M219.31,213a2.53,2.53,0,1,1-1.58-3.2,2.53,2.53,0,0,1,1.58,3.2c-.45,1.32.44-1.32,0,0m-4.22-1.43a1.92,1.92,0,0,0,1.2,2.45,1.93,1.93,0,1,0-1.2-2.45c-.35,1,.34-1,0,0" transform="translate(0 0)"/><line class="cls-5" x1="239.36" y1="214.69" x2="283.07" y2="214.69"/><line class="cls-6" x1="238.05" y1="222.06" x2="281.76" y2="222.06"/></g><path d="M212.53,183.88l5.13-11.56h3.56l5.06,11.56h-3.46l-2.73-6.82c-.16-.42-.29-.82-.4-1.2s-.18-.68-.22-.88l-.27.88q-.18.57-.42,1.2L216,183.88Z" transform="translate(0 0)"/><path d="M230.55,192.29v-3.4l8.6-4a11.14,11.14,0,0,1,1.17-.44l.9-.27c-.21,0-.52-.11-.92-.22a6.94,6.94,0,0,1-1.15-.43l-8.6-4v-3.47l13.28,6.25V186Z" transform="translate(0 0)"/></g><g class="cls-13"><g class="cls-13"><line class="cls-8" x1="1.48" y1="143.17" x2="21.64" y2="142.84"/><line class="cls-8" x1="1.74" y1="158.97" x2="21.89" y2="158.64"/><line class="cls-8" x1="1.78" y1="223.31" x2="21.93" y2="222.98"/><line class="cls-8" x1="1.78" y1="239.54" x2="21.93" y2="239.21"/><line class="cls-8" x1="1.67" y1="206.95" x2="21.83" y2="206.63"/><line class="cls-8" x1="1.67" y1="190.87" x2="21.83" y2="190.55"/><line class="cls-8" x1="1.57" y1="174.93" x2="21.73" y2="174.6"/><path d="M73.82,221.9H22.2a5.1,5.1,0,0,1-5.08-5.08V165.21a5.09,5.09,0,0,1,5.08-5.08H73.82a5.09,5.09,0,0,1,5.08,5.08v51.61a5.1,5.1,0,0,1-5.08,5.08" transform="translate(0 0)"/><path class="cls-9" d="M48.59,190.39c0,32.39-28.19,61.11-33.11,59.94-3.51-.84,1.65-13.11,1.65-56.54S12,131.28,15.48,130.44c4.92-1.17,33.11,27.55,33.11,59.95" transform="translate(0 0)"/></g></g><line class="cls-10" x1="85.45" y1="190.39" x2="149.04" y2="190.39"/><polygon class="cls-11" points="170.22 190.39 140.37 202.58 147.45 190.39 140.37 178.19 170.22 190.39"/><g class="cls-14"><g class="cls-14"><path d="M181.3,333.57l10.21-40.5h8.93l10.26,40.5h-7.1l-2.22-9.82H190.62l-2.22,9.82Zm10.59-15.48h8.21l-2.44-10.87c-.4-1.81-.76-3.45-1-4.91s-.5-2.52-.61-3.19c-.11.67-.32,1.73-.61,3.19s-.65,3.08-1,4.85Z" transform="translate(0 0)"/><path d="M250.08,333.57v-40.5h12a15.24,15.24,0,0,1,7.13,1.58,11.54,11.54,0,0,1,4.68,4.42,12.85,12.85,0,0,1,1.67,6.65v15.14a13.05,13.05,0,0,1-1.67,6.69,11.52,11.52,0,0,1-4.68,4.44,15.24,15.24,0,0,1-7.13,1.58Zm6.94-6.22h5.1a6.51,6.51,0,0,0,4.77-1.74,6.38,6.38,0,0,0,1.77-4.75V305.72a6.3,6.3,0,0,0-1.77-4.69,6.51,6.51,0,0,0-4.77-1.74H257Z" transform="translate(0 0)"/><path class="cls-3" d="M172.67,342.42c4.53,10.22,7.25,12.55,10.53,12.51,5.52-.06,7.22-14.12,12.27-14.1s7.11,14.14,12,14.14c3.25,0,6.15-2.61,9.52-12.47" transform="translate(0 0)"/><path class="cls-4" d="M170.71,343.43a2.23,2.23,0,1,1,2.94,1.14,2.23,2.23,0,0,1-2.94-1.14" transform="translate(0 0)"/><path d="M170.43,343.55a2.53,2.53,0,1,0,1.29-3.33,2.55,2.55,0,0,0-1.29,3.33c.57,1.27-.56-1.27,0,0m4.08-1.8a1.93,1.93,0,1,1-2.55-1,1.94,1.94,0,0,1,2.55,1c.43,1-.43-1,0,0" transform="translate(0 0)"/><path class="cls-4" d="M219,343.33a2.23,2.23,0,1,0-2.83,1.39,2.24,2.24,0,0,0,2.83-1.39" transform="translate(0 0)"/><path d="M219.31,343.42a2.53,2.53,0,1,1-1.58-3.2,2.53,2.53,0,0,1,1.58,3.2c-.45,1.32.44-1.32,0,0M215.09,342a1.92,1.92,0,0,0,1.2,2.45,1.93,1.93,0,1,0-1.2-2.45c-.35,1,.34-1,0,0" transform="translate(0 0)"/><line class="cls-5" x1="239.36" y1="345.11" x2="283.07" y2="345.11"/><line class="cls-6" x1="238.05" y1="352.49" x2="281.76" y2="352.49"/></g><path d="M212.53,314.3l5.13-11.56h3.56l5.06,11.56h-3.46l-2.73-6.82c-.16-.41-.29-.81-.4-1.2s-.18-.68-.22-.87l-.27.87q-.18.59-.42,1.2L216,314.3Z" transform="translate(0 0)"/><path d="M230.55,322.72v-3.41l8.6-4a9.36,9.36,0,0,1,1.17-.45l.9-.27c-.21,0-.52-.11-.92-.22a6.94,6.94,0,0,1-1.15-.43l-8.6-4V306.5l13.28,6.26v3.7Z" transform="translate(0 0)"/></g><g class="cls-15"><g class="cls-15"><line class="cls-8" x1="1.48" y1="273.59" x2="21.64" y2="273.26"/><line class="cls-8" x1="1.74" y1="289.39" x2="21.89" y2="289.07"/><line class="cls-8" x1="1.78" y1="353.73" x2="21.93" y2="353.41"/><line class="cls-8" x1="1.78" y1="369.96" x2="21.93" y2="369.63"/><line class="cls-8" x1="1.67" y1="337.38" x2="21.83" y2="337.05"/><line class="cls-8" x1="1.67" y1="321.3" x2="21.83" y2="320.97"/><line class="cls-8" x1="1.57" y1="305.35" x2="21.73" y2="305.02"/><path d="M73.82,352.32H22.2a5.09,5.09,0,0,1-5.08-5.08V295.63a5.1,5.1,0,0,1,5.08-5.08H73.82a5.1,5.1,0,0,1,5.08,5.08v51.61a5.09,5.09,0,0,1-5.08,5.08" transform="translate(0 0)"/><path class="cls-9" d="M48.59,320.81c0,32.4-28.19,61.12-33.11,59.94-3.51-.83,1.65-13.11,1.65-56.54S12,261.7,15.48,260.86c4.92-1.17,33.11,27.55,33.11,59.95" transform="translate(0 0)"/></g></g><line class="cls-10" x1="85.45" y1="320.81" x2="149.04" y2="320.81"/><polygon class="cls-11" points="170.22 320.81 140.37 333 147.45 320.81 140.37 308.62 170.22 320.81"/><g class="cls-16"><g class="cls-16"><path d="M181.3,463.5,191.51,423h8.93l10.26,40.5h-7.1l-2.22-9.82H190.62l-2.22,9.82ZM191.89,448h8.21l-2.44-10.87c-.4-1.81-.76-3.45-1-4.91s-.5-2.52-.61-3.19c-.11.67-.32,1.73-.61,3.19s-.65,3.08-1,4.85Z" transform="translate(0 0)"/><path d="M250.08,463.5V423h12a15.12,15.12,0,0,1,7.13,1.59,11.45,11.45,0,0,1,4.68,4.41,12.85,12.85,0,0,1,1.67,6.65v15.14a13,13,0,0,1-1.67,6.69,11.52,11.52,0,0,1-4.68,4.44,15.24,15.24,0,0,1-7.13,1.58Zm6.94-6.21h5.1a6.51,6.51,0,0,0,4.77-1.75,6.38,6.38,0,0,0,1.77-4.75V435.65a6.3,6.3,0,0,0-1.77-4.69,6.51,6.51,0,0,0-4.77-1.74H257Z" transform="translate(0 0)"/><path class="cls-3" d="M172.67,472.35c4.53,10.22,7.25,12.55,10.53,12.51,5.52-.06,7.22-14.12,12.27-14.1s7.11,14.14,12,14.14c3.25,0,6.15-2.61,9.52-12.47" transform="translate(0 0)"/><path class="cls-4" d="M170.71,473.36a2.23,2.23,0,1,1,2.94,1.14,2.23,2.23,0,0,1-2.94-1.14" transform="translate(0 0)"/><path d="M170.43,473.48a2.53,2.53,0,1,0,1.29-3.33,2.55,2.55,0,0,0-1.29,3.33c.57,1.27-.56-1.27,0,0m4.08-1.8a1.93,1.93,0,1,1-2.55-1,1.94,1.94,0,0,1,2.55,1c.43,1-.43-1,0,0" transform="translate(0 0)"/><path class="cls-4" d="M219,473.26a2.23,2.23,0,1,0-2.83,1.39,2.24,2.24,0,0,0,2.83-1.39" transform="translate(0 0)"/><path d="M219.31,473.35a2.53,2.53,0,1,1-1.58-3.2,2.53,2.53,0,0,1,1.58,3.2c-.45,1.32.44-1.32,0,0m-4.22-1.43a1.92,1.92,0,0,0,1.2,2.45,1.93,1.93,0,1,0-1.2-2.45c-.35,1,.34-1,0,0" transform="translate(0 0)"/><line class="cls-5" x1="239.36" y1="475.04" x2="283.07" y2="475.04"/><line class="cls-6" x1="238.05" y1="482.42" x2="281.76" y2="482.42"/></g><path d="M212.53,444.23l5.13-11.56h3.56l5.06,11.56h-3.46l-2.73-6.82c-.16-.41-.29-.81-.4-1.2s-.18-.68-.22-.87l-.27.87q-.18.59-.42,1.2L216,444.23Z" transform="translate(0 0)"/><path d="M230.55,452.65v-3.41l8.6-4a9.36,9.36,0,0,1,1.17-.45l.9-.27c-.21,0-.52-.11-.92-.22a6.94,6.94,0,0,1-1.15-.43l-8.6-4v-3.47l13.28,6.26v3.7Z" transform="translate(0 0)"/></g><g class="cls-17"><g class="cls-17"><line class="cls-8" x1="1.48" y1="403.52" x2="21.64" y2="403.19"/><line class="cls-8" x1="1.74" y1="419.32" x2="21.89" y2="419"/><line class="cls-8" x1="1.78" y1="483.67" x2="21.93" y2="483.34"/><line class="cls-8" x1="1.78" y1="499.89" x2="21.93" y2="499.56"/><line class="cls-8" x1="1.67" y1="467.31" x2="21.83" y2="466.98"/><line class="cls-8" x1="1.67" y1="451.23" x2="21.83" y2="450.9"/><line class="cls-8" x1="1.57" y1="435.28" x2="21.73" y2="434.95"/><path d="M73.82,482.25H22.2a5.09,5.09,0,0,1-5.08-5.08V425.56a5.1,5.1,0,0,1,5.08-5.08H73.82a5.1,5.1,0,0,1,5.08,5.08v51.61a5.09,5.09,0,0,1-5.08,5.08" transform="translate(0 0)"/><path class="cls-9" d="M48.59,450.74c0,32.4-28.19,61.12-33.11,59.94-3.51-.83,1.65-13.11,1.65-56.54S12,391.63,15.48,390.8c4.92-1.18,33.11,27.54,33.11,59.94" transform="translate(0 0)"/></g></g><line class="cls-10" x1="85.45" y1="450.74" x2="149.04" y2="450.74"/><polygon class="cls-11" points="170.22 450.74 140.37 462.94 147.45 450.74 140.37 438.55 170.22 450.74"/></svg>
