<svg id="Layer_1" data-name="Layer 1" xmlns="http://www.w3.org/2000/svg" xmlns:xlink="http://www.w3.org/1999/xlink" viewBox="0 0 535.41 532.28"><defs><style>.cls-1,.cls-10,.cls-11,.cls-20,.cls-23,.cls-28,.cls-29,.cls-3,.cls-31,.cls-33,.cls-38,.cls-39,.cls-41,.cls-49,.cls-52,.cls-54,.cls-8{fill:none;}.cls-2{clip-path:url(#clip-path);}.cls-10,.cls-11,.cls-20,.cls-23,.cls-3,.cls-31,.cls-33,.cls-8{stroke:#000;}.cls-10,.cls-11,.cls-28,.cls-29,.cls-3,.cls-38,.cls-39,.cls-41,.cls-49,.cls-52,.cls-54,.cls-8{stroke-linecap:round;}.cls-10,.cls-11,.cls-20,.cls-23,.cls-28,.cls-29,.cls-3,.cls-31,.cls-33,.cls-38,.cls-39,.cls-41,.cls-49,.cls-52,.cls-54,.cls-8{stroke-miterlimit:10;}.cls-3{stroke-width:2.96px;}.cls-4{fill:#333;}.cls-5{opacity:0.5;}.cls-6{clip-path:url(#clip-path-3);}.cls-7{clip-path:url(#clip-path-5);}.cls-10,.cls-11,.cls-8{stroke-width:1.34px;}.cls-9{fill:#fff;}.cls-10{stroke-dasharray:1.61 4.02 4.83 5.37 1.61 6.71;}.cls-11{stroke-dasharray:0 3.22 2.15 6.44 3.76 3.22;}.cls-12{clip-path:url(#clip-path-7);}.cls-13{clip-path:url(#clip-path-9);}.cls-14{clip-path:url(#clip-path-11);}.cls-15{clip-path:url(#clip-path-13);}.cls-16{clip-path:url(#clip-path-15);}.cls-17{clip-path:url(#clip-path-17);}.cls-18{clip-path:url(#clip-path-19);}.cls-19{clip-path:url(#clip-path-21);}.cls-20,.cls-23,.cls-41{stroke-width:5px;}.cls-21{opacity:0.25;}.cls-22{clip-path:url(#clip-path-25);}.cls-23{stroke-dasharray:5 5 5 5 5 5;}.cls-24{clip-path:url(#clip-path-26);}.cls-25{clip-path:url(#clip-path-27);}.cls-26{clip-path:url(#clip-path-28);}.cls-27{clip-path:url(#clip-path-29);}.cls-28,.cls-29,.cls-54{stroke:#ff2a2a;}.cls-28,.cls-29,.cls-38,.cls-39,.cls-49,.cls-52,.cls-54{stroke-width:3px;}.cls-28,.cls-39,.cls-51{opacity:0.8;}.cls-29,.cls-38{opacity:0.4;}.cls-30{clip-path:url(#clip-path-30);}.cls-31,.cls-33{stroke-width:1.59px;}.cls-32{clip-path:url(#clip-path-34);}.cls-33{stroke-dasharray:1.59 1.59 1.59 1.59 1.59 1.59;}.cls-34{clip-path:url(#clip-path-35);}.cls-35{clip-path:url(#clip-path-36);}.cls-36{clip-path:url(#clip-path-37);}.cls-37{clip-path:url(#clip-path-38);}.cls-38,.cls-39,.cls-52{stroke:#0071bc;}.cls-40{clip-path:url(#clip-path-39);}.cls-41{stroke:#fff;}.cls-42{clip-path:url(#clip-path-41);}.cls-43{clip-path:url(#clip-path-43);}.cls-44{clip-path:url(#clip-path-45);}.cls-45{clip-path:url(#clip-path-47);}.cls-46{clip-path:url(#clip-path-49);}.cls-47{clip-path:url(#clip-path-51);}.cls-48{clip-path:url(#clip-path-53);}.cls-49{stroke:#00a14b;}.cls-50{clip-path:url(#clip-path-55);}.cls-53{fill:#0071bc;}.cls-55{fill:#ff2a2a;}</style><clipPath id="clip-path" transform="translate(0)"><rect class="cls-1" x="130.07" y="133.27" width="78.9" height="119.96"/></clipPath><clipPath id="clip-path-3" transform="translate(0)"><rect class="cls-1" x="269.87" y="133.27" width="78.9" height="119.96"/></clipPath><clipPath id="clip-path-5" transform="translate(0)"><rect class="cls-1" x="396.97" y="479.88" width="77.17" height="41.74"/></clipPath><clipPath id="clip-path-7" transform="translate(0)"><rect class="cls-1" x="269.87" y="266.68" width="78.9" height="119.96"/></clipPath><clipPath id="clip-path-9" transform="translate(0)"><rect class="cls-1" x="269.87" y="400.61" width="78.9" height="119.96"/></clipPath><clipPath id="clip-path-11" transform="translate(0)"><rect class="cls-1" x="130.07" y="266.68" width="78.9" height="119.96"/></clipPath><clipPath id="clip-path-13" transform="translate(0)"><rect class="cls-1" x="130.07" y="400.61" width="78.9" height="119.96"/></clipPath><clipPath id="clip-path-15" transform="translate(0)"><rect class="cls-1" y="133.27" width="78.9" height="119.96"/></clipPath><clipPath id="clip-path-17" transform="translate(0)"><rect class="cls-1" y="266.68" width="78.9" height="119.96"/></clipPath><clipPath id="clip-path-19" transform="translate(0)"><rect class="cls-1" y="400.61" width="78.9" height="119.96"/></clipPath><clipPath id="clip-path-21" transform="translate(0)"><rect class="cls-1" x="369.66" y="172.65" width="131.77" height="307.23"/></clipPath><clipPath id="clip-path-25" transform="translate(0)"><rect class="cls-1" x="383.19" y="192.06" width="84.61" height="1.59"/></clipPath><clipPath id="clip-path-26" transform="translate(0)"><rect class="cls-1" x="383.19" y="325.9" width="84.61" height="1.59"/></clipPath><clipPath id="clip-path-27" transform="translate(0)"><rect class="cls-1" x="383.19" y="459.75" width="84.61" height="1.59"/></clipPath><clipPath id="clip-path-28" transform="translate(0)"><rect class="cls-1" x="467" y="192.85" width="1.59" height="267.69"/></clipPath><clipPath id="clip-path-29" transform="translate(0)"><rect class="cls-1" x="467.8" y="325.47" width="20.12" height="1.59"/></clipPath><clipPath id="clip-path-30" transform="translate(0)"><rect class="cls-1" x="29.06" y="1.5" width="307.23" height="131.77"/></clipPath><clipPath id="clip-path-34" transform="translate(0)"><rect class="cls-1" x="48.47" y="35.14" width="1.59" height="84.61"/></clipPath><clipPath id="clip-path-35" transform="translate(0)"><rect class="cls-1" x="182.31" y="35.14" width="1.59" height="84.61"/></clipPath><clipPath id="clip-path-36" transform="translate(0)"><rect class="cls-1" x="316.16" y="35.14" width="1.59" height="84.61"/></clipPath><clipPath id="clip-path-37" transform="translate(0)"><rect class="cls-1" x="49.26" y="34.34" width="267.69" height="1.59"/></clipPath><clipPath id="clip-path-38" transform="translate(0)"><rect class="cls-1" x="181.88" y="15.02" width="1.59" height="20.12"/></clipPath><clipPath id="clip-path-39" transform="translate(0)"><rect class="cls-1" x="21.82" y="175.02" width="22.55" height="36.47"/></clipPath><clipPath id="clip-path-41" transform="translate(0)"><rect class="cls-1" x="151.5" y="175.52" width="22.55" height="36.47"/></clipPath><clipPath id="clip-path-43" transform="translate(0)"><rect class="cls-1" x="290.14" y="172.65" width="22.55" height="36.47"/></clipPath><clipPath id="clip-path-45" transform="translate(0)"><rect class="cls-1" x="21.82" y="308.03" width="22.55" height="36.47"/></clipPath><clipPath id="clip-path-47" transform="translate(0)"><rect class="cls-1" x="151.5" y="308.03" width="22.55" height="36.47"/></clipPath><clipPath id="clip-path-49" transform="translate(0)"><rect class="cls-1" x="290.14" y="308.03" width="22.55" height="36.47"/></clipPath><clipPath id="clip-path-51" transform="translate(0)"><rect class="cls-1" x="17.78" y="442.36" width="22.55" height="36.47"/></clipPath><clipPath id="clip-path-53" transform="translate(0)"><rect class="cls-1" x="151.5" y="442.6" width="22.55" height="36.47"/></clipPath><clipPath id="clip-path-55" transform="translate(0)"><rect class="cls-1" x="290.14" y="442.36" width="22.55" height="36.47"/></clipPath></defs><g class="cls-2"><g class="cls-2"><line class="cls-3" x1="131.56" y1="146.03" x2="151.71" y2="145.7"/><line class="cls-3" x1="131.81" y1="161.83" x2="151.97" y2="161.51"/><line class="cls-3" x1="131.85" y1="226.18" x2="152.01" y2="225.85"/><line class="cls-3" x1="131.85" y1="242.4" x2="152.01" y2="242.07"/><line class="cls-3" x1="131.75" y1="209.82" x2="151.9" y2="209.49"/><line class="cls-3" x1="131.75" y1="193.74" x2="151.9" y2="193.41"/><line class="cls-3" x1="131.65" y1="177.79" x2="151.8" y2="177.46"/><path d="M203.89,224.76H152.28a5.09,5.09,0,0,1-5.08-5.08V168.07a5.09,5.09,0,0,1,5.08-5.08h51.61a5.09,5.09,0,0,1,5.08,5.08v51.61a5.09,5.09,0,0,1-5.08,5.08" transform="translate(0)"/><path class="cls-4" d="M178.66,193.25c0,32.4-28.18,61.12-33.11,59.94-3.5-.83,1.65-13.11,1.65-56.54s-5.15-62.51-1.65-63.34c4.93-1.18,33.11,27.54,33.11,59.94" transform="translate(0)"/></g></g><g class="cls-5"><g class="cls-6"><g class="cls-6"><line class="cls-3" x1="271.35" y1="146.03" x2="291.51" y2="145.7"/><line class="cls-3" x1="271.61" y1="161.83" x2="291.76" y2="161.51"/><line class="cls-3" x1="271.65" y1="226.18" x2="291.8" y2="225.85"/><line class="cls-3" x1="271.65" y1="242.4" x2="291.8" y2="242.07"/><line class="cls-3" x1="271.54" y1="209.82" x2="291.7" y2="209.49"/><line class="cls-3" x1="271.54" y1="193.74" x2="291.7" y2="193.41"/><line class="cls-3" x1="271.44" y1="177.79" x2="291.6" y2="177.46"/><path d="M343.69,224.76H292.07a5.09,5.09,0,0,1-5.08-5.08V168.07a5.1,5.1,0,0,1,5.08-5.08h51.62a5.1,5.1,0,0,1,5.08,5.08v51.61a5.09,5.09,0,0,1-5.08,5.08" transform="translate(0)"/><path class="cls-4" d="M318.46,193.25c0,32.4-28.19,61.12-33.11,59.94-3.51-.83,1.65-13.11,1.65-56.54s-5.16-62.51-1.65-63.34c4.92-1.18,33.11,27.54,33.11,59.94" transform="translate(0)"/></g></g></g><g class="cls-7"><g class="cls-7"><path d="M404.47,508.31l6.92-24h6.05l6.95,24h-4.81l-1.5-5.82h-7.29l-1.51,5.82Zm7.18-9.17h5.56l-1.65-6.44q-.42-1.62-.72-2.91c-.2-.87-.33-1.5-.41-1.89-.07.39-.21,1-.41,1.89s-.44,1.82-.72,2.88Z" transform="translate(0)"/><path d="M451.07,508.31v-24h8.15a11.63,11.63,0,0,1,4.83.93,7.49,7.49,0,0,1,3.17,2.62,6.81,6.81,0,0,1,1.13,3.94v9a6.93,6.93,0,0,1-1.13,4,7.52,7.52,0,0,1-3.17,2.63,11.63,11.63,0,0,1-4.83.93Zm4.69-3.68h3.46a4.78,4.78,0,0,0,3.23-1,3.54,3.54,0,0,0,1.2-2.82v-9a3.49,3.49,0,0,0-1.2-2.78,4.78,4.78,0,0,0-3.23-1h-3.46Z" transform="translate(0)"/><path class="cls-8" d="M398.63,513.56c3.06,6.05,4.91,7.43,7.13,7.41,3.74,0,4.89-8.36,8.31-8.36s4.82,8.39,8.12,8.39c2.21,0,4.17-1.55,6.45-7.4" transform="translate(0)"/><path class="cls-9" d="M397.3,514.16a1.26,1.26,0,0,1,.77-1.75,1.61,1.61,0,0,1,2,.68,1.26,1.26,0,0,1-.77,1.74,1.6,1.6,0,0,1-2-.67" transform="translate(0)"/><path d="M397.11,514.23a1.83,1.83,0,0,0,2.26.76,1.43,1.43,0,0,0,.87-2,1.81,1.81,0,0,0-2.25-.77,1.44,1.44,0,0,0-.88,2h0m2.76-1.07a1.09,1.09,0,0,1-.66,1.51,1.4,1.4,0,0,1-1.73-.58,1.09,1.09,0,0,1,.67-1.51,1.37,1.37,0,0,1,1.72.58c.3.58-.29-.58,0,0" transform="translate(0)"/><path class="cls-9" d="M430,514.1a1.29,1.29,0,0,0-.95-1.68,1.58,1.58,0,0,0-1.91.83,1.28,1.28,0,0,0,.94,1.67,1.57,1.57,0,0,0,1.92-.82" transform="translate(0)"/><path d="M430.22,514.15a1.79,1.79,0,0,1-2.17.94,1.47,1.47,0,0,1-1.07-1.9,1.79,1.79,0,0,1,2.17-.94,1.47,1.47,0,0,1,1.07,1.9h0m-2.86-.85a1.13,1.13,0,0,0,.82,1.46,1.37,1.37,0,0,0,1.66-.72,1.12,1.12,0,0,0-.82-1.45,1.35,1.35,0,0,0-1.66.71h0" transform="translate(0)"/><line class="cls-10" x1="443.81" y1="515.15" x2="473.42" y2="515.15"/><line class="cls-11" x1="442.92" y1="519.52" x2="472.53" y2="519.52"/></g><path d="M425.63,496.89,429.1,490h2.41l3.44,6.85H432.6l-1.85-4a5.69,5.69,0,0,1-.27-.71,3.5,3.5,0,0,1-.15-.52l-.18.52c-.08.23-.18.47-.28.71l-1.91,4Z" transform="translate(0)"/><path d="M437.84,501.88v-2l5.82-2.35a6.72,6.72,0,0,1,.79-.27l.62-.15-.63-.14a4.42,4.42,0,0,1-.78-.25l-5.82-2.37v-2.06l9,3.71v2.2Z" transform="translate(0)"/></g><g class="cls-5"><g class="cls-12"><g class="cls-12"><line class="cls-3" x1="271.35" y1="279.44" x2="291.51" y2="279.11"/><line class="cls-3" x1="271.61" y1="295.24" x2="291.76" y2="294.92"/><line class="cls-3" x1="271.65" y1="359.58" x2="291.8" y2="359.26"/><line class="cls-3" x1="271.65" y1="375.81" x2="291.8" y2="375.48"/><line class="cls-3" x1="271.54" y1="343.23" x2="291.7" y2="342.9"/><line class="cls-3" x1="271.54" y1="327.15" x2="291.7" y2="326.82"/><line class="cls-3" x1="271.44" y1="311.2" x2="291.6" y2="310.87"/><path d="M343.69,358.17H292.07a5.09,5.09,0,0,1-5.08-5.08V301.48a5.1,5.1,0,0,1,5.08-5.08h51.62a5.1,5.1,0,0,1,5.08,5.08v51.61a5.09,5.09,0,0,1-5.08,5.08" transform="translate(0)"/><path class="cls-4" d="M318.46,326.66c0,32.4-28.19,61.12-33.11,59.94-3.51-.83,1.65-13.11,1.65-56.54s-5.16-62.51-1.65-63.34c4.92-1.18,33.11,27.54,33.11,59.94" transform="translate(0)"/></g></g></g><g class="cls-5"><g class="cls-13"><g class="cls-13"><line class="cls-3" x1="271.35" y1="413.37" x2="291.51" y2="413.04"/><line class="cls-3" x1="271.61" y1="429.17" x2="291.76" y2="428.85"/><line class="cls-3" x1="271.65" y1="493.52" x2="291.8" y2="493.19"/><line class="cls-3" x1="271.65" y1="509.74" x2="291.8" y2="509.41"/><line class="cls-3" x1="271.54" y1="477.16" x2="291.7" y2="476.83"/><line class="cls-3" x1="271.54" y1="461.08" x2="291.7" y2="460.75"/><line class="cls-3" x1="271.44" y1="445.13" x2="291.6" y2="444.8"/><path d="M343.69,492.1H292.07A5.09,5.09,0,0,1,287,487V435.41a5.1,5.1,0,0,1,5.08-5.08h51.62a5.1,5.1,0,0,1,5.08,5.08V487a5.09,5.09,0,0,1-5.08,5.08" transform="translate(0)"/><path class="cls-4" d="M318.46,460.59c0,32.4-28.19,61.12-33.11,59.94C281.84,519.7,287,507.42,287,464s-5.16-62.51-1.65-63.34c4.92-1.18,33.11,27.54,33.11,59.94" transform="translate(0)"/></g></g></g><g class="cls-5"><g class="cls-14"><g class="cls-14"><line class="cls-3" x1="131.56" y1="279.44" x2="151.71" y2="279.11"/><line class="cls-3" x1="131.81" y1="295.24" x2="151.97" y2="294.92"/><line class="cls-3" x1="131.85" y1="359.58" x2="152.01" y2="359.26"/><line class="cls-3" x1="131.85" y1="375.81" x2="152.01" y2="375.48"/><line class="cls-3" x1="131.75" y1="343.23" x2="151.9" y2="342.9"/><line class="cls-3" x1="131.75" y1="327.15" x2="151.9" y2="326.82"/><line class="cls-3" x1="131.65" y1="311.2" x2="151.8" y2="310.87"/><path d="M203.89,358.17H152.28a5.09,5.09,0,0,1-5.08-5.08V301.48a5.09,5.09,0,0,1,5.08-5.08h51.61a5.09,5.09,0,0,1,5.08,5.08v51.61a5.09,5.09,0,0,1-5.08,5.08" transform="translate(0)"/><path class="cls-4" d="M178.66,326.66c0,32.4-28.18,61.12-33.11,59.94-3.5-.83,1.65-13.11,1.65-56.54s-5.15-62.51-1.65-63.34c4.93-1.18,33.11,27.54,33.11,59.94" transform="translate(0)"/></g></g></g><g class="cls-5"><g class="cls-15"><g class="cls-15"><line class="cls-3" x1="131.56" y1="413.37" x2="151.71" y2="413.04"/><line class="cls-3" x1="131.81" y1="429.17" x2="151.97" y2="428.85"/><line class="cls-3" x1="131.85" y1="493.52" x2="152.01" y2="493.19"/><line class="cls-3" x1="131.85" y1="509.74" x2="152.01" y2="509.41"/><line class="cls-3" x1="131.75" y1="477.16" x2="151.9" y2="476.83"/><line class="cls-3" x1="131.75" y1="461.08" x2="151.9" y2="460.75"/><line class="cls-3" x1="131.65" y1="445.13" x2="151.8" y2="444.8"/><path d="M203.89,492.1H152.28A5.09,5.09,0,0,1,147.2,487V435.41a5.09,5.09,0,0,1,5.08-5.08h51.61a5.09,5.09,0,0,1,5.08,5.08V487a5.09,5.09,0,0,1-5.08,5.08" transform="translate(0)"/><path class="cls-4" d="M178.66,460.59c0,32.4-28.18,61.12-33.11,59.94-3.5-.83,1.65-13.11,1.65-56.54s-5.15-62.51-1.65-63.34c4.93-1.18,33.11,27.54,33.11,59.94" transform="translate(0)"/></g></g></g><g class="cls-5"><g class="cls-16"><g class="cls-16"><line class="cls-3" x1="1.48" y1="146.03" x2="21.64" y2="145.7"/><line class="cls-3" x1="1.74" y1="161.83" x2="21.89" y2="161.51"/><line class="cls-3" x1="1.78" y1="226.18" x2="21.93" y2="225.85"/><line class="cls-3" x1="1.78" y1="242.4" x2="21.93" y2="242.07"/><line class="cls-3" x1="1.67" y1="209.82" x2="21.83" y2="209.49"/><line class="cls-3" x1="1.67" y1="193.74" x2="21.83" y2="193.41"/><line class="cls-3" x1="1.57" y1="177.79" x2="21.73" y2="177.46"/><path d="M73.82,224.76H22.2a5.09,5.09,0,0,1-5.08-5.08V168.07A5.1,5.1,0,0,1,22.2,163H73.82a5.1,5.1,0,0,1,5.08,5.08v51.61a5.09,5.09,0,0,1-5.08,5.08" transform="translate(0)"/><path class="cls-4" d="M48.59,193.25c0,32.4-28.19,61.12-33.11,59.94-3.51-.83,1.65-13.11,1.65-56.54S12,134.14,15.48,133.31c4.92-1.18,33.11,27.54,33.11,59.94" transform="translate(0)"/></g></g></g><g class="cls-5"><g class="cls-17"><g class="cls-17"><line class="cls-3" x1="1.48" y1="279.44" x2="21.64" y2="279.11"/><line class="cls-3" x1="1.74" y1="295.24" x2="21.89" y2="294.92"/><line class="cls-3" x1="1.78" y1="359.58" x2="21.93" y2="359.26"/><line class="cls-3" x1="1.78" y1="375.81" x2="21.93" y2="375.48"/><line class="cls-3" x1="1.67" y1="343.23" x2="21.83" y2="342.9"/><line class="cls-3" x1="1.67" y1="327.15" x2="21.83" y2="326.82"/><line class="cls-3" x1="1.57" y1="311.2" x2="21.73" y2="310.87"/><path d="M73.82,358.17H22.2a5.09,5.09,0,0,1-5.08-5.08V301.48a5.1,5.1,0,0,1,5.08-5.08H73.82a5.1,5.1,0,0,1,5.08,5.08v51.61a5.09,5.09,0,0,1-5.08,5.08" transform="translate(0)"/><path class="cls-4" d="M48.59,326.66c0,32.4-28.19,61.12-33.11,59.94-3.51-.83,1.65-13.11,1.65-56.54S12,267.55,15.48,266.72c4.92-1.18,33.11,27.54,33.11,59.94" transform="translate(0)"/></g></g></g><g class="cls-5"><g class="cls-18"><g class="cls-18"><line class="cls-3" x1="1.48" y1="413.37" x2="21.64" y2="413.04"/><line class="cls-3" x1="1.74" y1="429.17" x2="21.89" y2="428.85"/><line class="cls-3" x1="1.78" y1="493.52" x2="21.93" y2="493.19"/><line class="cls-3" x1="1.78" y1="509.74" x2="21.93" y2="509.41"/><line class="cls-3" x1="1.67" y1="477.16" x2="21.83" y2="476.83"/><line class="cls-3" x1="1.67" y1="461.08" x2="21.83" y2="460.75"/><line class="cls-3" x1="1.57" y1="445.13" x2="21.73" y2="444.8"/><path d="M73.82,492.1H22.2A5.09,5.09,0,0,1,17.12,487V435.41a5.1,5.1,0,0,1,5.08-5.08H73.82a5.1,5.1,0,0,1,5.08,5.08V487a5.09,5.09,0,0,1-5.08,5.08" transform="translate(0)"/><path class="cls-4" d="M48.59,460.59c0,32.4-28.19,61.12-33.11,59.94C12,519.7,17.13,507.42,17.13,464S12,401.48,15.48,400.65c4.92-1.18,33.11,27.54,33.11,59.94" transform="translate(0)"/></g></g></g><g class="cls-19"><g class="cls-19"><g class="cls-19"><path class="cls-9" d="M383.57,474V178.51a5.07,5.07,0,0,1,5.07-5.07h94.65a5.07,5.07,0,0,1,5.07,5.07V474a5.07,5.07,0,0,1-5.07,5.07H388.64a5.07,5.07,0,0,1-5.07-5.07" transform="translate(0)"/><rect class="cls-20" x="383.57" y="173.44" width="104.79" height="305.64" rx="5.07"/><line class="cls-20" x1="383.19" y1="192.85" x2="370.95" y2="192.85"/><path class="cls-9" d="M371,191.66a1.2,1.2,0,1,0,1.2,1.19,1.19,1.19,0,0,0-1.2-1.19" transform="translate(0)"/><path d="M371,191.5a1.36,1.36,0,1,1-1.36,1.35A1.35,1.35,0,0,1,371,191.5h0m0,2.39a1,1,0,1,0-1-1,1,1,0,0,0,1,1h0" transform="translate(0)"/></g><path d="M420.86,192h30.21v6.13l-9.6,2.9c-1,.3-1.84.54-2.63.72s-1.37.3-1.76.35c.39.06,1,.17,1.76.35s1.66.42,2.63.73l9.6,2.85v6.17H420.86v-4.84h12.71q4.17,0,7.76.33t6.8.74l-14.27-4.09v-4.51l14-4.14c-1.93.27-4,.54-6.35.78a74,74,0,0,1-7.92.38H420.86Z" transform="translate(0)"/><path d="M420.45,227a9.57,9.57,0,0,1,2.42-6.93,8.74,8.74,0,0,1,6.6-2.5h21.6v5.21H429.51a4.84,4.84,0,0,0-3.35,1.08,4.68,4.68,0,0,0,0,6.26,4.8,4.8,0,0,0,3.35,1.1h21.56v5.21h-21.6a8.76,8.76,0,0,1-6.6-2.48A9.54,9.54,0,0,1,420.45,227Z" transform="translate(0)"/><path d="M420.86,244.37h30.21v5.17H425.54v12.83h-4.68Z" transform="translate(0)"/><path d="M420.86,274h25.53v-7.9h4.68v21h-4.68v-7.91H420.86Z" transform="translate(0)"/><path d="M420.86,292.74h4.68v6.09h20.85v-6.09h4.68v17.38h-4.68V304H425.54v6.08h-4.68Z" transform="translate(0)"/><path d="M420.86,317h30.21v10a11.47,11.47,0,0,1-1.16,5.28,8.37,8.37,0,0,1-3.25,3.49,10.3,10.3,0,0,1-9.8,0,8.37,8.37,0,0,1-3.25-3.49,11.47,11.47,0,0,1-1.16-5.28v-4.88H420.86ZM437,322.21v4.88a4.61,4.61,0,0,0,1.33,3.48,5.24,5.24,0,0,0,6.86,0,4.61,4.61,0,0,0,1.33-3.48v-4.88Z" transform="translate(0)"/><path d="M420.86,343.68h30.21v5.18H425.54v12.83h-4.68Z" transform="translate(0)"/><path d="M420.86,367.15h30.21v18.12h-4.55v-13h-7.86v11.58h-4.39V372.24h-8.86v13h-4.55Z" transform="translate(0)"/><path d="M420.86,389.49l15.48,8.36L451.07,390v5.79l-7.57,3.81c-.55.27-1.09.52-1.6.74l-1.17.5a9.9,9.9,0,0,1,1.17.46c.51.22,1.05.46,1.6.74l7.57,3.85v5.63l-14.61-7.87L420.86,412v-5.79l8.36-4.26c.53-.28,1.06-.53,1.59-.77s1-.41,1.27-.51c-.31-.12-.72-.28-1.24-.5s-1.07-.47-1.62-.75l-8.36-4.3Z" transform="translate(0)"/><path d="M420.86,416.8h30.21v18.13h-4.55v-13h-7.86v11.59h-4.39V421.89h-8.86v13h-4.55Z" transform="translate(0)"/><path d="M420.86,441.13h30.21v9.56a11.44,11.44,0,0,1-1.12,5.24,8.35,8.35,0,0,1-3.12,3.45,8.82,8.82,0,0,1-4.74,1.25,9.22,9.22,0,0,1-5.27-1.52,8.13,8.13,0,0,1-3.21-4.07l-12.75,6v-5.79l12-5.26v-3.68h-12Zm16.55,5.18v4.38a4.74,4.74,0,0,0,1.2,3.44,4.4,4.4,0,0,0,3.32,1.24,4.5,4.5,0,0,0,3.35-1.26,4.65,4.65,0,0,0,1.24-3.42v-4.38Z" transform="translate(0)"/><g class="cls-19"><line class="cls-20" x1="383.19" y1="460.54" x2="370.95" y2="460.54"/><path class="cls-9" d="M371,459.35a1.2,1.2,0,1,0,1.2,1.19,1.19,1.19,0,0,0-1.2-1.19" transform="translate(0)"/><path d="M371,459.19a1.36,1.36,0,1,1-1.36,1.35,1.36,1.36,0,0,1,1.36-1.35h0m0,2.39a1,1,0,1,0-1-1,1,1,0,0,0,1,1h0" transform="translate(0)"/><line class="cls-20" x1="383.19" y1="326.7" x2="370.95" y2="326.7"/><path class="cls-9" d="M371,325.5a1.2,1.2,0,1,0,1.2,1.2,1.2,1.2,0,0,0-1.2-1.2" transform="translate(0)"/><path d="M371,325.34a1.36,1.36,0,1,1-1.36,1.36,1.36,1.36,0,0,1,1.36-1.36h0m0,2.4a1,1,0,1,0-1-1,1,1,0,0,0,1,1h0" transform="translate(0)"/><line class="cls-20" x1="500.15" y1="326.26" x2="487.91" y2="326.26"/><path class="cls-9" d="M500.08,325.07a1.2,1.2,0,1,1-1.2,1.19,1.19,1.19,0,0,1,1.2-1.19" transform="translate(0)"/><path d="M500.08,324.91a1.36,1.36,0,1,0,1.36,1.35,1.36,1.36,0,0,0-1.36-1.35h0m0,2.39a1,1,0,1,1,1-1,1,1,0,0,1-1,1h0" transform="translate(0)"/><g class="cls-21"><g class="cls-22"><line class="cls-23" x1="383.19" y1="192.85" x2="467.8" y2="192.85"/></g></g><g class="cls-21"><g class="cls-24"><line class="cls-23" x1="383.19" y1="326.7" x2="467.8" y2="326.7"/></g></g><g class="cls-21"><g class="cls-25"><line class="cls-23" x1="383.19" y1="460.54" x2="467.8" y2="460.54"/></g></g><g class="cls-21"><g class="cls-26"><line class="cls-23" x1="467.8" y1="192.85" x2="467.8" y2="460.54"/></g></g><g class="cls-21"><g class="cls-27"><line class="cls-23" x1="487.91" y1="326.26" x2="467.79" y2="326.26"/></g></g></g></g></g><line class="cls-28" x1="367.62" y1="193.08" x2="50.56" y2="194.12"/><line class="cls-29" x1="367.62" y1="326.66" x2="50.56" y2="327.7"/><line class="cls-29" x1="367.62" y1="460.16" x2="50.56" y2="461.2"/><g class="cls-30"><g class="cls-30"><g class="cls-30"><path class="cls-9" d="M330.42,119.36H34.92a5.07,5.07,0,0,1-5.07-5.07V19.64a5.07,5.07,0,0,1,5.07-5.07h295.5a5.07,5.07,0,0,1,5.07,5.07v94.65a5.07,5.07,0,0,1-5.07,5.07" transform="translate(0)"/><rect class="cls-31" x="29.85" y="14.57" width="305.64" height="104.79" rx="5.07"/><line class="cls-31" x1="49.26" y1="119.75" x2="49.26" y2="131.98"/><path class="cls-9" d="M48.06,131.91a1.2,1.2,0,1,0,1.2-1.19,1.2,1.2,0,0,0-1.2,1.19" transform="translate(0)"/><path d="M47.9,131.91a1.36,1.36,0,1,1,1.36,1.36,1.36,1.36,0,0,1-1.36-1.36h0m2.4,0a1,1,0,1,0-1,1,1,1,0,0,0,1-1h0" transform="translate(0)"/></g><path d="M48.43,82.07V51.86h6.13l2.9,9.6c.3,1,.54,1.85.72,2.63s.3,1.38.35,1.76c.06-.38.17-1,.35-1.76s.42-1.66.73-2.63l2.85-9.6h6.17V82.07H63.79V69.37c0-2.79.11-5.37.33-7.76s.47-4.66.74-6.81L60.77,69.08H56.26l-4.14-14q.41,2.89.78,6.35a74.33,74.33,0,0,1,.38,7.93v12.7Z" transform="translate(0)"/><path d="M83.36,82.49a9.57,9.57,0,0,1-6.93-2.42,8.77,8.77,0,0,1-2.51-6.6V51.86h5.22V73.42a4.89,4.89,0,0,0,1.07,3.36,4.7,4.7,0,0,0,6.27,0,4.81,4.81,0,0,0,1.1-3.36V51.86h5.21V73.47a8.79,8.79,0,0,1-2.48,6.6A9.54,9.54,0,0,1,83.36,82.49Z" transform="translate(0)"/><path d="M100.78,82.07V51.86H106V77.4h12.83v4.67Z" transform="translate(0)"/><path d="M130.41,82.07V56.54h-7.9V51.86h21v4.68h-7.91V82.07Z" transform="translate(0)"/><path d="M149.15,82.07V77.4h6.09V56.54h-6.09V51.86h17.38v4.68h-6.08V77.4h6.08v4.67Z" transform="translate(0)"/><path d="M173.44,82.07V51.86H183.5A11.47,11.47,0,0,1,188.78,53a8.56,8.56,0,0,1,3.49,3.25,10.32,10.32,0,0,1,0,9.81,8.5,8.5,0,0,1-3.49,3.25,11.47,11.47,0,0,1-5.28,1.16h-4.88V82.07Zm5.18-16.14h4.88A4.64,4.64,0,0,0,187,64.61a5.25,5.25,0,0,0,0-6.87,4.64,4.64,0,0,0-3.48-1.32h-4.88Z" transform="translate(0)"/><path d="M200.09,82.07V51.86h5.18V77.4h12.82v4.67Z" transform="translate(0)"/><path d="M223.56,82.07V51.86h18.12v4.56h-13v7.86h11.58v4.39H228.65v8.85h13v4.55Z" transform="translate(0)"/><path d="M245.9,82.07l8.36-15.47L246.4,51.86h5.79L256,59.44c.27.55.52,1.08.74,1.59s.39.9.5,1.18a10.62,10.62,0,0,1,.45-1.18c.23-.51.47-1,.75-1.59l3.85-7.58h5.63l-7.87,14.61,8.36,15.6h-5.79l-4.26-8.36c-.28-.52-.53-1-.77-1.59s-.41-1-.52-1.26c-.11.3-.27.72-.49,1.24s-.47,1.06-.75,1.61l-4.3,8.36Z" transform="translate(0)"/><path d="M273.21,82.07V51.86h18.13v4.56h-13v7.86h11.59v4.39H278.3v8.85h13v4.55Z" transform="translate(0)"/><path d="M297.54,82.07V51.86h9.56A11.57,11.57,0,0,1,312.34,53a8.44,8.44,0,0,1,3.45,3.13A8.76,8.76,0,0,1,317,60.84a9.22,9.22,0,0,1-1.51,5.28,8.24,8.24,0,0,1-4.07,3.21l6,12.74h-5.79l-5.26-12h-3.68v12Zm5.18-16.55h4.38a4.74,4.74,0,0,0,3.44-1.2A4.37,4.37,0,0,0,311.78,61a4.49,4.49,0,0,0-1.26-3.35,4.65,4.65,0,0,0-3.42-1.24h-4.38Z" transform="translate(0)"/><g class="cls-30"><line class="cls-31" x1="316.95" y1="119.75" x2="316.95" y2="131.98"/><path class="cls-9" d="M315.76,131.91a1.2,1.2,0,1,0,1.19-1.19,1.19,1.19,0,0,0-1.19,1.19" transform="translate(0)"/><path d="M315.6,131.91a1.36,1.36,0,1,1,1.35,1.36,1.35,1.35,0,0,1-1.35-1.36h0m2.39,0a1,1,0,1,0-1,1,1,1,0,0,0,1-1h0" transform="translate(0)"/><line class="cls-31" x1="183.11" y1="119.75" x2="183.11" y2="131.98"/><path class="cls-9" d="M181.91,131.91a1.2,1.2,0,1,0,1.2-1.19,1.2,1.2,0,0,0-1.2,1.19" transform="translate(0)"/><path d="M181.75,131.91a1.36,1.36,0,1,1,1.36,1.36,1.36,1.36,0,0,1-1.36-1.36h0m2.39,0a1,1,0,1,0-1,1,1,1,0,0,0,1-1h0" transform="translate(0)"/><line class="cls-31" x1="182.67" y1="2.79" x2="182.67" y2="15.02"/><path class="cls-9" d="M181.48,2.86a1.2,1.2,0,1,1,1.19,1.19,1.19,1.19,0,0,1-1.19-1.19" transform="translate(0)"/><path d="M181.32,2.86a1.36,1.36,0,1,0,1.35-1.36,1.35,1.35,0,0,0-1.35,1.36h0m2.39,0a1,1,0,1,1-1-1,1,1,0,0,1,1,1h0" transform="translate(0)"/><g class="cls-21"><g class="cls-32"><line class="cls-33" x1="49.26" y1="119.75" x2="49.26" y2="35.14"/></g></g><g class="cls-21"><g class="cls-34"><line class="cls-33" x1="183.11" y1="119.75" x2="183.11" y2="35.14"/></g></g><g class="cls-21"><g class="cls-35"><line class="cls-33" x1="316.95" y1="119.75" x2="316.95" y2="35.14"/></g></g><g class="cls-21"><g class="cls-36"><line class="cls-33" x1="49.26" y1="35.14" x2="316.95" y2="35.14"/></g></g><g class="cls-21"><g class="cls-37"><line class="cls-33" x1="182.67" y1="15.02" x2="182.67" y2="35.14"/></g></g></g></g></g><line class="cls-38" x1="316.69" y1="133.27" x2="317.73" y2="460.76"/><line class="cls-39" x1="184.16" y1="460.77" x2="183.11" y2="133.27"/><line class="cls-38" x1="50.65" y1="460.77" x2="49.61" y2="133.27"/><g class="cls-40"><g class="cls-40"><path class="cls-9" d="M29,178.56l13,3.27v2.86L29,188V185.7l3.14-.71v-3.44L29,180.84ZM34,182v2.63l3.49-.78,1.57-.34c.46-.09.8-.16,1-.19l-1-.2-1.56-.33Z" transform="translate(0)"/><path class="cls-9" d="M29,189.59H42v2.63l-4.12,1.24c-.41.13-.79.23-1.12.31a7.48,7.48,0,0,1-.76.15l.76.15c.33.08.71.18,1.12.31L42,195.61v2.65H29v-2.08h5.45c1.2,0,2.31,0,3.33.14s2,.2,2.92.32l-6.12-1.76V193l6-1.78c-.83.12-1.74.23-2.73.34a33.91,33.91,0,0,1-3.4.16H29Z" transform="translate(0)"/><path class="cls-9" d="M29,200.62H42v4.31a4.93,4.93,0,0,1-.49,2.27,3.75,3.75,0,0,1-1.4,1.5,4.45,4.45,0,0,1-4.21,0,3.73,3.73,0,0,1-1.39-1.5,4.93,4.93,0,0,1-.5-2.27v-2.09H29Zm6.93,2.22v2.09a2,2,0,0,0,.56,1.49,2.25,2.25,0,0,0,3,0,2,2,0,0,0,.57-1.49v-2.09Z" transform="translate(0)"/><path class="cls-41" d="M25.33,176.73a3.6,3.6,0,0,0-.74,2.58c0,1.63,1.31,1.95,1.32,3.57,0,1.78-1.72,2.31-1.67,4s2.65,2.53,2.58,4.12-3.53,2.1-3.56,3.64,5,2.3,5,3.92-5.44,3-5.52,4.69c-.1,1.9,7.55,2.65,7.55,4.55,0,.82-.41,1.72-4.44,3" transform="translate(0)"/><path class="cls-9" d="M24.84,176.23a.71.71,0,0,1,1,.06.72.72,0,0,1-.06,1,.71.71,0,0,1-1-.07.7.7,0,0,1,.07-1" transform="translate(0)"/><path class="cls-9" d="M24.77,176.15a.82.82,0,0,0-.07,1.15.81.81,0,0,0,1.21-1.07.82.82,0,0,0-1.14-.08c-.33.3.34-.29,0,0m.94,1.08a.62.62,0,0,1-.81-.93.62.62,0,1,1,.81.93h0" transform="translate(0)"/><path class="cls-9" d="M25.63,210.08a.71.71,0,0,0,.43,1.36.71.71,0,1,0-.43-1.36" transform="translate(0)"/><path class="cls-9" d="M25.6,210a.81.81,0,1,1-.52,1,.8.8,0,0,1,.52-1h0m.43,1.36a.63.63,0,0,0,.41-.78.63.63,0,0,0-.78-.4.61.61,0,0,0-.4.78.62.62,0,0,0,.77.4h0" transform="translate(0)"/></g></g><g class="cls-42"><g class="cls-42"><path class="cls-9" d="M158.69,179.07l13,3.26v2.86l-13,3.29v-2.27l3.14-.71v-3.45l-3.14-.71Zm4.95,3.39v2.63l3.49-.78c.57-.13,1.1-.25,1.57-.34l1-.2c-.22,0-.56-.1-1-.19l-1.56-.34Z" transform="translate(0)"/><path class="cls-9" d="M158.69,190.09h13v2.63L167.53,194c-.41.13-.79.23-1.12.31l-.76.15a7.48,7.48,0,0,1,.76.15c.33.08.71.18,1.12.31l4.12,1.22v2.65h-13v-2.08h5.45c1.2,0,2.31,0,3.33.14s2,.21,2.92.32l-6.12-1.75v-1.94l6-1.78c-.83.12-1.74.24-2.73.34a31.17,31.17,0,0,1-3.4.16h-5.45Z" transform="translate(0)"/><path class="cls-9" d="M158.69,201.12h13v4.32a4.89,4.89,0,0,1-.49,2.26,3.63,3.63,0,0,1-1.4,1.5,4.45,4.45,0,0,1-4.21,0,3.61,3.61,0,0,1-1.39-1.5,4.89,4.89,0,0,1-.5-2.26v-2.1h-5Zm6.93,2.22v2.1a2,2,0,0,0,.56,1.49,2.25,2.25,0,0,0,2.95,0,2,2,0,0,0,.57-1.49v-2.1Z" transform="translate(0)"/><path class="cls-41" d="M155,177.24a3.64,3.64,0,0,0-.75,2.57c.05,1.63,1.32,1.95,1.33,3.57,0,1.79-1.72,2.32-1.67,4s2.65,2.54,2.58,4.13-3.53,2.1-3.56,3.64,5,2.29,5,3.91-5.44,3-5.52,4.69c-.1,1.9,7.55,2.66,7.55,4.55,0,.83-.41,1.73-4.44,3" transform="translate(0)"/><path class="cls-9" d="M154.52,176.73a.7.7,0,0,1,1,.07.72.72,0,0,1-.06,1,.73.73,0,0,1-1-.07.71.71,0,0,1,.07-1" transform="translate(0)"/><path class="cls-9" d="M154.45,176.66a.81.81,0,1,0,1.14.08.81.81,0,0,0-1.14-.08h0m.94,1.07a.62.62,0,0,1-.87,0,.63.63,0,0,1,.06-.88.62.62,0,0,1,.87.06.61.61,0,0,1-.06.87c-.25.23.26-.22,0,0" transform="translate(0)"/><path class="cls-9" d="M155.31,210.58a.71.71,0,1,0,.9.47.72.72,0,0,0-.9-.47" transform="translate(0)"/><path class="cls-9" d="M155.28,210.49a.81.81,0,1,1-.53,1,.82.82,0,0,1,.53-1c.43-.13-.42.14,0,0m.43,1.36a.6.6,0,0,0,.4-.77.61.61,0,1,0-1.17.37.6.6,0,0,0,.77.4c.33-.1-.32.11,0,0" transform="translate(0)"/></g></g><g class="cls-43"><g class="cls-43"><path class="cls-9" d="M297.33,176.19l13,3.27v2.86l-13,3.29v-2.28l3.14-.71v-3.44l-3.14-.71Zm4.95,3.4v2.62l3.48-.78,1.58-.33,1-.2c-.22,0-.56-.1-1-.19l-1.56-.34Z" transform="translate(0)"/><path class="cls-9" d="M297.33,187.22h13v2.63l-4.12,1.24c-.41.13-.79.24-1.12.31a7.48,7.48,0,0,1-.76.15l.76.16c.33.07.71.18,1.12.31l4.12,1.22v2.65h-13v-2.08h5.45c1.2,0,2.31.05,3.33.14s2,.2,2.92.32l-6.12-1.76v-1.93l6-1.78c-.83.12-1.74.23-2.73.34a31.17,31.17,0,0,1-3.4.16h-5.45Z" transform="translate(0)"/><path class="cls-9" d="M297.33,198.25h13v4.31a4.93,4.93,0,0,1-.49,2.27,3.75,3.75,0,0,1-1.4,1.5,4.45,4.45,0,0,1-4.21,0,3.73,3.73,0,0,1-1.39-1.5,4.93,4.93,0,0,1-.5-2.27v-2.09h-5Zm6.93,2.22v2.09a2,2,0,0,0,.56,1.5,2.25,2.25,0,0,0,2.95,0,2,2,0,0,0,.57-1.5v-2.09Z" transform="translate(0)"/><path class="cls-41" d="M293.65,174.36a3.67,3.67,0,0,0-.75,2.58c.05,1.63,1.32,1.95,1.33,3.57,0,1.79-1.72,2.31-1.68,4s2.66,2.53,2.59,4.13-3.53,2.1-3.57,3.63c0,1.68,5,2.3,5,3.92s-5.44,3-5.53,4.69c-.09,1.9,7.55,2.65,7.56,4.55,0,.83-.41,1.72-4.44,3" transform="translate(0)"/><path class="cls-9" d="M293.16,173.86a.71.71,0,1,1,.93,1.07.71.71,0,1,1-.93-1.07" transform="translate(0)"/><path class="cls-9" d="M293.09,173.79a.81.81,0,1,0,1.14.07.81.81,0,0,0-1.14-.07h0m.94,1.07a.62.62,0,0,1-.81-.93.62.62,0,0,1,.87.06.61.61,0,0,1-.06.87c-.25.23.26-.22,0,0" transform="translate(0)"/><path class="cls-9" d="M294,207.71a.71.71,0,1,0,.89.46.72.72,0,0,0-.89-.46" transform="translate(0)"/><path class="cls-9" d="M293.92,207.62a.81.81,0,1,1-.53,1,.82.82,0,0,1,.53-1h0m.43,1.36a.61.61,0,0,0,.4-.78.62.62,0,0,0-1.18.38.63.63,0,0,0,.78.4h0" transform="translate(0)"/></g></g><g class="cls-44"><g class="cls-44"><path class="cls-9" d="M29,311.58l13,3.26v2.86L29,321v-2.27l3.14-.71v-3.45L29,313.85ZM34,315v2.63l3.49-.78c.58-.13,1.1-.25,1.57-.34l1-.2c-.22,0-.56-.1-1-.19l-1.56-.34Z" transform="translate(0)"/><path class="cls-9" d="M29,322.6H42v2.63l-4.12,1.25c-.41.13-.79.23-1.12.31l-.76.15a7.48,7.48,0,0,1,.76.15c.33.07.71.18,1.12.31L42,328.62v2.65H29v-2.08h5.45c1.2,0,2.31.05,3.33.14s2,.21,2.92.32l-6.12-1.75V326l6-1.78c-.83.12-1.74.24-2.73.34a31.17,31.17,0,0,1-3.4.16H29Z" transform="translate(0)"/><path class="cls-9" d="M29,333.63H42V338a4.89,4.89,0,0,1-.49,2.26,3.63,3.63,0,0,1-1.4,1.5,4.45,4.45,0,0,1-4.21,0,3.61,3.61,0,0,1-1.39-1.5A4.89,4.89,0,0,1,34,338v-2.1H29Zm6.93,2.22V338a2.1,2.1,0,0,0,3.51,1.49A2,2,0,0,0,40,338v-2.1Z" transform="translate(0)"/><path class="cls-41" d="M25.33,309.75a3.59,3.59,0,0,0-.74,2.57c0,1.63,1.31,1.95,1.32,3.57,0,1.79-1.72,2.32-1.67,4s2.65,2.53,2.58,4.13-3.53,2.1-3.56,3.64,5,2.29,5,3.91-5.44,3-5.52,4.69c-.1,1.9,7.55,2.66,7.55,4.55,0,.83-.41,1.73-4.44,3" transform="translate(0)"/><path class="cls-9" d="M24.84,309.24a.7.7,0,0,1,1,.07.71.71,0,0,1-.06,1,.72.72,0,0,1-1-.06.71.71,0,0,1,.07-1" transform="translate(0)"/><path class="cls-9" d="M24.77,309.17a.81.81,0,1,0,1.14.08.81.81,0,0,0-1.14-.08h0m.94,1.07a.61.61,0,0,1-.87-.06.62.62,0,0,1,.93-.81.61.61,0,0,1-.06.87c-.25.23.26-.22,0,0" transform="translate(0)"/><path class="cls-9" d="M25.63,343.09a.71.71,0,1,0,.9.47.71.71,0,0,0-.9-.47" transform="translate(0)"/><path class="cls-9" d="M25.6,343a.82.82,0,0,1,1,.53.81.81,0,1,1-1-.53c.43-.13-.42.14,0,0m.43,1.36a.62.62,0,0,0,.41-.77.63.63,0,0,0-.78-.41.62.62,0,0,0-.4.78.6.6,0,0,0,.77.4c.33-.1-.32.11,0,0" transform="translate(0)"/></g></g><g class="cls-45"><g class="cls-45"><path class="cls-9" d="M158.69,311.58l13,3.26v2.86l-13,3.29v-2.27l3.14-.71v-3.45l-3.14-.71Zm4.95,3.39v2.63l3.49-.78c.57-.13,1.1-.25,1.57-.34l1-.2c-.22,0-.56-.1-1-.19l-1.56-.34Z" transform="translate(0)"/><path class="cls-9" d="M158.69,322.6h13v2.63l-4.12,1.25c-.41.13-.79.23-1.12.31l-.76.15a7.48,7.48,0,0,1,.76.15c.33.07.71.18,1.12.31l4.12,1.22v2.65h-13v-2.08h5.45c1.2,0,2.31.05,3.33.14s2,.21,2.92.32l-6.12-1.75V326l6-1.78c-.83.12-1.74.24-2.73.34a31.17,31.17,0,0,1-3.4.16h-5.45Z" transform="translate(0)"/><path class="cls-9" d="M158.69,333.63h13V338a4.89,4.89,0,0,1-.49,2.26,3.63,3.63,0,0,1-1.4,1.5,4.45,4.45,0,0,1-4.21,0,3.61,3.61,0,0,1-1.39-1.5,4.89,4.89,0,0,1-.5-2.26v-2.1h-5Zm6.93,2.22V338a2,2,0,0,0,.56,1.49,2.25,2.25,0,0,0,2.95,0,2,2,0,0,0,.57-1.49v-2.1Z" transform="translate(0)"/><path class="cls-41" d="M155,309.75a3.64,3.64,0,0,0-.75,2.57c.05,1.63,1.32,1.95,1.33,3.57,0,1.79-1.72,2.32-1.67,4s2.65,2.53,2.58,4.13-3.53,2.1-3.56,3.64,5,2.29,5,3.91-5.44,3-5.52,4.69c-.1,1.9,7.55,2.66,7.55,4.55,0,.83-.41,1.73-4.44,3" transform="translate(0)"/><path class="cls-9" d="M154.52,309.24a.7.7,0,0,1,1,.07.71.71,0,0,1-.06,1,.72.72,0,0,1-1-.06.71.71,0,0,1,.07-1" transform="translate(0)"/><path class="cls-9" d="M154.45,309.17a.81.81,0,1,0,1.14.08.81.81,0,0,0-1.14-.08h0m.94,1.07a.61.61,0,0,1-.87-.06.62.62,0,0,1,.93-.81.61.61,0,0,1-.06.87c-.25.23.26-.22,0,0" transform="translate(0)"/><path class="cls-9" d="M155.31,343.09a.71.71,0,1,0,.9.47.72.72,0,0,0-.9-.47" transform="translate(0)"/><path class="cls-9" d="M155.28,343a.81.81,0,1,1-.53,1,.82.82,0,0,1,.53-1c.43-.13-.42.14,0,0m.43,1.36a.6.6,0,0,0,.4-.77.61.61,0,1,0-1.17.37.6.6,0,0,0,.77.4c.33-.1-.32.11,0,0" transform="translate(0)"/></g></g><g class="cls-46"><g class="cls-46"><path class="cls-9" d="M297.33,311.58l13,3.26v2.86l-13,3.29v-2.27l3.14-.71v-3.45l-3.14-.71Zm4.95,3.39v2.63l3.48-.78c.58-.13,1.11-.25,1.58-.34l1-.2c-.22,0-.56-.1-1-.19l-1.56-.34Z" transform="translate(0)"/><path class="cls-9" d="M297.33,322.6h13v2.63l-4.12,1.25c-.41.13-.79.23-1.12.31l-.76.15a7.48,7.48,0,0,1,.76.15c.33.07.71.18,1.12.31l4.12,1.22v2.65h-13v-2.08h5.45c1.2,0,2.31.05,3.33.14s2,.21,2.92.32l-6.12-1.75V326l6-1.78c-.83.12-1.74.24-2.73.34a31.17,31.17,0,0,1-3.4.16h-5.45Z" transform="translate(0)"/><path class="cls-9" d="M297.33,333.63h13V338a4.89,4.89,0,0,1-.49,2.26,3.63,3.63,0,0,1-1.4,1.5,4.45,4.45,0,0,1-4.21,0,3.61,3.61,0,0,1-1.39-1.5,4.89,4.89,0,0,1-.5-2.26v-2.1h-5Zm6.93,2.22V338a2,2,0,0,0,.56,1.49,2.25,2.25,0,0,0,2.95,0,2,2,0,0,0,.57-1.49v-2.1Z" transform="translate(0)"/><path class="cls-41" d="M293.65,309.75a3.64,3.64,0,0,0-.75,2.57c.05,1.63,1.32,1.95,1.33,3.57,0,1.79-1.72,2.32-1.68,4s2.66,2.53,2.59,4.13-3.53,2.1-3.57,3.64,5,2.29,5,3.91-5.44,3-5.53,4.69c-.09,1.9,7.55,2.66,7.56,4.55,0,.83-.41,1.73-4.44,3" transform="translate(0)"/><path class="cls-9" d="M293.16,309.24a.71.71,0,1,1,.93,1.07.71.71,0,1,1-.93-1.07" transform="translate(0)"/><path class="cls-9" d="M293.09,309.17a.81.81,0,1,0,1.14.08.81.81,0,0,0-1.14-.08h0m.94,1.07a.62.62,0,0,1-.81-.93.62.62,0,0,1,.87.06.61.61,0,0,1-.06.87c-.25.23.26-.22,0,0" transform="translate(0)"/><path class="cls-9" d="M294,343.09a.71.71,0,1,0,.43,1.36.71.71,0,0,0-.43-1.36" transform="translate(0)"/><path class="cls-9" d="M293.92,343a.81.81,0,1,1-.53,1,.82.82,0,0,1,.53-1h0m.43,1.36a.6.6,0,0,0,.4-.77.62.62,0,0,0-.77-.41.63.63,0,0,0-.41.78.62.62,0,0,0,.78.4c.33-.1-.32.11,0,0" transform="translate(0)"/></g></g><g class="cls-47"><g class="cls-47"><path class="cls-9" d="M25,445.9l13,3.27V452l-13,3.28V453l3.14-.71v-3.44L25,448.18Zm5,3.39v2.63l3.48-.78L35,450.8l1-.19-1-.2-1.56-.33Z" transform="translate(0)"/><path class="cls-9" d="M25,456.93h13v2.63l-4.12,1.24c-.41.13-.79.23-1.12.31a7.48,7.48,0,0,1-.76.15l.76.15c.33.08.71.18,1.12.31L37.93,463v2.65H25v-2.08h5.45c1.2,0,2.31,0,3.33.14s2,.2,2.92.32l-6.12-1.76v-1.93l6-1.78c-.83.12-1.74.23-2.73.34a33.76,33.76,0,0,1-3.4.16H25Z" transform="translate(0)"/><path class="cls-9" d="M25,468h13v4.31a4.93,4.93,0,0,1-.49,2.27A3.69,3.69,0,0,1,36,476a4.45,4.45,0,0,1-4.21,0,3.73,3.73,0,0,1-1.39-1.5,4.93,4.93,0,0,1-.5-2.27v-2.09H25Zm6.93,2.22v2.09a2,2,0,0,0,.56,1.49,2,2,0,0,0,1.48.55,2,2,0,0,0,1.47-.55,2,2,0,0,0,.57-1.49v-2.09Z" transform="translate(0)"/><path class="cls-41" d="M21.29,444.07a3.6,3.6,0,0,0-.74,2.58c0,1.63,1.31,2,1.33,3.57,0,1.78-1.72,2.31-1.68,4s2.65,2.53,2.59,4.12-3.54,2.1-3.57,3.64,5,2.3,5,3.92-5.44,3-5.52,4.69c-.1,1.9,7.55,2.65,7.55,4.55,0,.82-.41,1.72-4.44,3" transform="translate(0)"/><path class="cls-9" d="M20.8,443.57a.71.71,0,0,1,1,.06.72.72,0,0,1-.06,1,.71.71,0,0,1-1-.07.7.7,0,0,1,.07-1" transform="translate(0)"/><path class="cls-9" d="M20.74,443.49a.82.82,0,0,0-.08,1.15.81.81,0,0,0,1.14.07.81.81,0,1,0-1.06-1.22h0m.93,1.08a.62.62,0,1,1-.81-.93.62.62,0,0,1,.81.93h0" transform="translate(0)"/><path class="cls-9" d="M21.59,477.42a.71.71,0,1,0,.9.46.71.71,0,0,0-.9-.46" transform="translate(0)"/><path class="cls-9" d="M21.56,477.33a.81.81,0,1,1-.52,1,.8.8,0,0,1,.52-1h0m.43,1.36a.63.63,0,0,0,.41-.78.63.63,0,0,0-.78-.4.61.61,0,0,0-.4.78.62.62,0,0,0,.77.4h0" transform="translate(0)"/></g></g><g class="cls-48"><g class="cls-48"><path class="cls-9" d="M158.69,446.14l13,3.27v2.86l-13,3.29v-2.28l3.14-.71v-3.44l-3.14-.71Zm4.95,3.4v2.62l3.49-.78c.57-.13,1.1-.24,1.57-.33l1-.2-1-.2-1.56-.33Z" transform="translate(0)"/><path class="cls-9" d="M158.69,457.17h13v2.63L167.53,461c-.41.13-.79.24-1.12.31a7.48,7.48,0,0,1-.76.15l.76.16c.33.07.71.18,1.12.31l4.12,1.22v2.65h-13v-2.08h5.45c1.2,0,2.31.05,3.33.14s2,.2,2.92.32l-6.12-1.76v-1.93l6-1.78c-.83.12-1.74.23-2.73.34a31.17,31.17,0,0,1-3.4.16h-5.45Z" transform="translate(0)"/><path class="cls-9" d="M158.69,468.2h13v4.31a4.93,4.93,0,0,1-.49,2.27,3.75,3.75,0,0,1-1.4,1.5,4.45,4.45,0,0,1-4.21,0,3.73,3.73,0,0,1-1.39-1.5,4.93,4.93,0,0,1-.5-2.27v-2.09h-5Zm6.93,2.22v2.09a2,2,0,0,0,.56,1.5,2.25,2.25,0,0,0,2.95,0,2,2,0,0,0,.57-1.5v-2.09Z" transform="translate(0)"/><path class="cls-41" d="M155,444.31a3.67,3.67,0,0,0-.75,2.58c.05,1.63,1.32,1.95,1.33,3.57,0,1.79-1.72,2.31-1.67,4s2.65,2.53,2.58,4.13-3.53,2.1-3.56,3.63c0,1.68,5,2.3,5,3.92s-5.44,3-5.52,4.69c-.1,1.9,7.55,2.65,7.55,4.55,0,.83-.41,1.72-4.44,3" transform="translate(0)"/><path class="cls-9" d="M154.52,443.81a.7.7,0,0,1,1,.07.71.71,0,1,1-1.07.93.7.7,0,0,1,.07-1" transform="translate(0)"/><path class="cls-9" d="M154.45,443.74a.81.81,0,1,0,1.14.07.81.81,0,0,0-1.14-.07h0m.94,1.07a.61.61,0,0,1-.87-.06.62.62,0,0,1,.06-.87.62.62,0,0,1,.81.93c-.25.23.26-.22,0,0" transform="translate(0)"/><path class="cls-9" d="M155.31,477.66a.71.71,0,0,0,.43,1.36.71.71,0,1,0-.43-1.36" transform="translate(0)"/><path class="cls-9" d="M155.28,477.57a.81.81,0,1,1-.53,1,.82.82,0,0,1,.53-1h0m.43,1.36a.61.61,0,0,0,.4-.78.62.62,0,0,0-.77-.4.61.61,0,0,0-.4.78.62.62,0,0,0,.77.4h0" transform="translate(0)"/></g></g><path class="cls-49" d="M78.9,193.25V460.83c-1.11,37,27.1,67.54,60.51,69.82,36.67,2.5,71-29.59,69.68-70.43V193.6c3.74-37.68,36.34-65.83,72.79-64.31,34.41,1.43,63.5,29,66.89,64.46V460.22c-.07,15.28,10,40.53,48.2,40.53" transform="translate(0)"/><g class="cls-50"><g class="cls-50"><path class="cls-9" d="M297.33,445.9l13,3.27V452l-13,3.28V453l3.14-.71v-3.44l-3.14-.71Zm4.95,3.39v2.63l3.48-.78,1.58-.34c.46-.09.8-.16,1-.19l-1-.2-1.56-.33Z" transform="translate(0)"/><path class="cls-9" d="M297.33,456.93h13v2.63l-4.12,1.24c-.41.13-.79.23-1.12.31a7.48,7.48,0,0,1-.76.15l.76.15c.33.08.71.18,1.12.31l4.12,1.23v2.65h-13v-2.08h5.45c1.2,0,2.31,0,3.33.14s2,.2,2.92.32l-6.12-1.76v-1.93l6-1.78c-.83.12-1.74.23-2.73.34a33.91,33.91,0,0,1-3.4.16h-5.45Z" transform="translate(0)"/><path class="cls-9" d="M297.33,468h13v4.31a4.93,4.93,0,0,1-.49,2.27,3.75,3.75,0,0,1-1.4,1.5,4.45,4.45,0,0,1-4.21,0,3.73,3.73,0,0,1-1.39-1.5,4.93,4.93,0,0,1-.5-2.27v-2.09h-5Zm6.93,2.22v2.09a2,2,0,0,0,.56,1.49,2.25,2.25,0,0,0,2.95,0,2,2,0,0,0,.57-1.49v-2.09Z" transform="translate(0)"/><path class="cls-41" d="M293.65,444.07a3.65,3.65,0,0,0-.75,2.58c.05,1.63,1.32,2,1.33,3.57,0,1.78-1.72,2.31-1.68,4s2.66,2.53,2.59,4.12-3.53,2.1-3.57,3.64,5,2.3,5,3.92-5.44,3-5.53,4.69c-.09,1.9,7.55,2.65,7.56,4.55,0,.82-.41,1.72-4.44,3" transform="translate(0)"/><path class="cls-9" d="M293.16,443.57a.71.71,0,1,1,.93,1.07.71.71,0,0,1-.93-1.07" transform="translate(0)"/><path class="cls-9" d="M293.09,443.49a.82.82,0,0,0-.07,1.15.81.81,0,1,0,1.21-1.07.82.82,0,0,0-1.14-.08c-.33.3.34-.29,0,0m.94,1.08a.62.62,0,0,1-.87-.06.62.62,0,1,1,.87.06h0" transform="translate(0)"/><path class="cls-9" d="M294,477.42a.71.71,0,1,0,.89.46.71.71,0,0,0-.89-.46" transform="translate(0)"/><path class="cls-9" d="M293.92,477.33a.8.8,0,0,1,1,.52.81.81,0,1,1-1-.52c.42-.14-.43.13,0,0m.43,1.36a.62.62,0,0,0-.37-1.18.62.62,0,0,0-.41.78.63.63,0,0,0,.78.4h0" transform="translate(0)"/></g></g><g class="cls-51"><polyline class="cls-52" points="182.67 1.5 354.63 1.5 354.63 150.73 525.46 150.73"/><circle class="cls-9" cx="524.93" cy="150.73" r="9.25" transform="translate(-0.85 298.49) rotate(-31.72)"/><path class="cls-53" d="M524.93,161.21a10.48,10.48,0,1,1,10.48-10.48,10.49,10.49,0,0,1-10.48,10.48Zm0-18.5a8,8,0,1,0,8,8,8,8,0,0,0-8-8Z" transform="translate(0)"/></g><g class="cls-51"><polyline class="cls-54" points="501.44 326.26 501.44 172.65 525.46 172.65"/><circle class="cls-9" cx="524.93" cy="172.65" r="9.25" transform="translate(-24.43 232.34) rotate(-24.41)"/><path class="cls-55" d="M524.93,183.13a10.48,10.48,0,1,1,10.48-10.48,10.49,10.49,0,0,1-10.48,10.48Zm0-18.5a8,8,0,1,0,8,8,8,8,0,0,0-8-8Z" transform="translate(0)"/></g><path class="cls-53" d="M521.05,150.64v-2.16h8.64v2.16Z" transform="translate(0)"/><path class="cls-55" d="M524.26,178.9v-5.26H519.1v-2.16h5.16v-5.27h2.38v5.27h5.15v2.16h-5.15v5.26Z" transform="translate(0)"/></svg>