<svg id="Layer_1" data-name="Layer 1" xmlns="http://www.w3.org/2000/svg" xmlns:xlink="http://www.w3.org/1999/xlink" viewBox="0 0 489.37 510.72"><defs><style>.cls-1,.cls-11,.cls-13,.cls-14,.cls-18,.cls-19,.cls-20,.cls-3,.cls-5,.cls-9{fill:none;}.cls-2{clip-path:url(#clip-path);}.cls-11,.cls-13,.cls-14,.cls-17,.cls-18,.cls-20,.cls-3,.cls-9{stroke:#000;}.cls-11,.cls-13,.cls-14,.cls-3{stroke-linecap:round;}.cls-11,.cls-13,.cls-14,.cls-17,.cls-18,.cls-19,.cls-20,.cls-3,.cls-5,.cls-9{stroke-miterlimit:10;}.cls-3{stroke-width:2.96px;}.cls-4{fill:#333;}.cls-19,.cls-5{stroke:#00a14b;}.cls-5,.cls-9{stroke-width:3px;}.cls-6{fill:#00a14b;}.cls-7{opacity:0.5;}.cls-8{clip-path:url(#clip-path-3);}.cls-10{clip-path:url(#clip-path-5);}.cls-11,.cls-13,.cls-14{stroke-width:2.12px;}.cls-12,.cls-17{fill:#fff;}.cls-13{stroke-dasharray:2.54 6.35 7.62 8.47 2.54 10.59;}.cls-14{stroke-dasharray:0 5.08 3.39 10.16 5.93 5.08;}.cls-15{clip-path:url(#clip-path-7);}.cls-16{clip-path:url(#clip-path-9);}.cls-17,.cls-18,.cls-19,.cls-20{stroke-width:5px;}.cls-19{stroke-linecap:square;}.cls-19,.cls-20{opacity:0.25;}.cls-20{stroke-dasharray:5 5 5 5 5 5;}</style><clipPath id="clip-path" transform="translate(0 0)"><rect class="cls-1" width="78.9" height="119.96"/></clipPath><clipPath id="clip-path-3" transform="translate(0 0)"><rect class="cls-1" y="130.41" width="78.9" height="119.96"/></clipPath><clipPath id="clip-path-5" transform="translate(0 0)"><rect class="cls-1" x="375.45" y="220.37" width="113.91" height="70.44"/></clipPath><clipPath id="clip-path-7" transform="translate(0 0)"><rect class="cls-1" y="260.83" width="78.9" height="119.96"/></clipPath><clipPath id="clip-path-9" transform="translate(0 0)"><rect class="cls-1" y="390.76" width="78.9" height="119.96"/></clipPath></defs><g class="cls-2"><g class="cls-2"><line class="cls-3" x1="1.48" y1="12.76" x2="21.64" y2="12.43"/><line class="cls-3" x1="1.74" y1="28.56" x2="21.89" y2="28.24"/><line class="cls-3" x1="1.78" y1="92.9" x2="21.93" y2="92.58"/><line class="cls-3" x1="1.78" y1="109.13" x2="21.93" y2="108.8"/><line class="cls-3" x1="1.67" y1="76.55" x2="21.83" y2="76.22"/><line class="cls-3" x1="1.67" y1="60.46" x2="21.83" y2="60.14"/><line class="cls-3" x1="1.57" y1="44.52" x2="21.73" y2="44.19"/><path d="M73.82,91.49H22.2a5.09,5.09,0,0,1-5.08-5.08V34.8a5.1,5.1,0,0,1,5.08-5.08H73.82A5.1,5.1,0,0,1,78.9,34.8V86.41a5.09,5.09,0,0,1-5.08,5.08" transform="translate(0 0)"/><path class="cls-4" d="M48.59,60c0,32.4-28.19,61.12-33.11,59.94-3.51-.83,1.65-13.11,1.65-56.54S12,.87,15.48,0C20.4-1.14,48.59,27.58,48.59,60" transform="translate(0 0)"/></g></g><line class="cls-5" x1="85.45" y1="59.98" x2="149.04" y2="59.98"/><polygon class="cls-6" points="170.22 59.98 140.37 72.17 147.45 59.98 140.37 47.78 170.22 59.98"/><g class="cls-7"><g class="cls-8"><g class="cls-8"><line class="cls-3" x1="1.48" y1="143.17" x2="21.64" y2="142.84"/><line class="cls-3" x1="1.74" y1="158.97" x2="21.89" y2="158.64"/><line class="cls-3" x1="1.78" y1="223.31" x2="21.93" y2="222.98"/><line class="cls-3" x1="1.78" y1="239.54" x2="21.93" y2="239.21"/><line class="cls-3" x1="1.67" y1="206.95" x2="21.83" y2="206.63"/><line class="cls-3" x1="1.67" y1="190.87" x2="21.83" y2="190.55"/><line class="cls-3" x1="1.57" y1="174.93" x2="21.73" y2="174.6"/><path d="M73.82,221.9H22.2a5.1,5.1,0,0,1-5.08-5.08V165.21a5.09,5.09,0,0,1,5.08-5.08H73.82a5.09,5.09,0,0,1,5.08,5.08v51.61a5.1,5.1,0,0,1-5.08,5.08" transform="translate(0 0)"/><path class="cls-4" d="M48.59,190.39c0,32.39-28.19,61.11-33.11,59.94-3.51-.84,1.65-13.11,1.65-56.54S12,131.28,15.48,130.44c4.92-1.17,33.11,27.55,33.11,59.95" transform="translate(0 0)"/></g></g></g><g class="cls-7"><line class="cls-9" x1="85.45" y1="190.39" x2="149.04" y2="190.39"/><polygon points="170.22 190.39 140.37 202.58 147.45 190.39 140.37 178.19 170.22 190.39"/></g><g class="cls-10"><g class="cls-10"><path d="M386.53,268.35l10.21-40.49h8.93l10.26,40.49h-7.1l-2.22-9.82H395.85l-2.21,9.82Zm10.6-15.48h8.21L402.9,242c-.41-1.81-.76-3.45-1.06-4.91s-.49-2.52-.6-3.19c-.12.67-.32,1.73-.62,3.19s-.64,3.08-1.05,4.86Z" transform="translate(0 0)"/><path d="M455.32,268.35V227.86h12a15.09,15.09,0,0,1,7.13,1.58,11.41,11.41,0,0,1,4.69,4.41,12.85,12.85,0,0,1,1.66,6.65v15.15a13,13,0,0,1-1.66,6.68,11.42,11.42,0,0,1-4.69,4.44,15.21,15.21,0,0,1-7.13,1.58Zm6.93-6.21h5.1a6.51,6.51,0,0,0,4.77-1.75,6.34,6.34,0,0,0,1.78-4.74V240.5a6.23,6.23,0,0,0-1.78-4.68,6.47,6.47,0,0,0-4.77-1.75h-5.1Z" transform="translate(0 0)"/><path class="cls-11" d="M377.91,277.2c4.52,10.22,7.25,12.55,10.53,12.51,5.51-.06,7.21-14.11,12.27-14.1s7.1,14.14,12,14.14c3.26,0,6.15-2.61,9.52-12.47" transform="translate(0 0)"/><path class="cls-12" d="M375.94,278.21a2.23,2.23,0,1,1,2.94,1.14,2.23,2.23,0,0,1-2.94-1.14" transform="translate(0 0)"/><path d="M375.67,278.33A2.53,2.53,0,1,0,377,275a2.53,2.53,0,0,0-1.29,3.33c.56,1.28-.56-1.27,0,0m4.08-1.8a1.93,1.93,0,1,1-2.55-1,1.94,1.94,0,0,1,2.55,1h0" transform="translate(0 0)"/><path class="cls-12" d="M424.26,278.11a2.23,2.23,0,1,0-2.83,1.39,2.23,2.23,0,0,0,2.83-1.39" transform="translate(0 0)"/><path d="M424.54,278.21A2.53,2.53,0,1,1,423,275a2.53,2.53,0,0,1,1.58,3.21c-.45,1.31.45-1.32,0,0m-4.22-1.44a1.93,1.93,0,1,0,2.45-1.21,1.93,1.93,0,0,0-2.45,1.21h0" transform="translate(0 0)"/><line class="cls-13" x1="444.6" y1="279.89" x2="488.31" y2="279.89"/><line class="cls-14" x1="443.29" y1="287.27" x2="487" y2="287.27"/></g><path d="M417.77,249.08l5.12-11.56h3.56l5.07,11.56h-3.47l-2.73-6.82c-.15-.41-.29-.81-.4-1.2s-.18-.67-.22-.87l-.27.87c-.11.39-.25.79-.41,1.2l-2.82,6.82Z" transform="translate(0 0)"/><path d="M435.79,257.5v-3.41l8.59-4a10.73,10.73,0,0,1,1.17-.45l.91-.26c-.22,0-.53-.12-.92-.23a6.24,6.24,0,0,1-1.16-.43l-8.59-4v-3.47l13.28,6.26v3.7Z" transform="translate(0 0)"/></g><g class="cls-7"><g class="cls-15"><g class="cls-15"><line class="cls-3" x1="1.48" y1="273.59" x2="21.64" y2="273.26"/><line class="cls-3" x1="1.74" y1="289.39" x2="21.89" y2="289.07"/><line class="cls-3" x1="1.78" y1="353.73" x2="21.93" y2="353.41"/><line class="cls-3" x1="1.78" y1="369.96" x2="21.93" y2="369.63"/><line class="cls-3" x1="1.67" y1="337.38" x2="21.83" y2="337.05"/><line class="cls-3" x1="1.67" y1="321.3" x2="21.83" y2="320.97"/><line class="cls-3" x1="1.57" y1="305.35" x2="21.73" y2="305.02"/><path d="M73.82,352.32H22.2a5.09,5.09,0,0,1-5.08-5.08V295.63a5.1,5.1,0,0,1,5.08-5.08H73.82a5.1,5.1,0,0,1,5.08,5.08v51.61a5.09,5.09,0,0,1-5.08,5.08" transform="translate(0 0)"/><path class="cls-4" d="M48.59,320.81c0,32.4-28.19,61.12-33.11,59.94-3.51-.83,1.65-13.11,1.65-56.54S12,261.7,15.48,260.86c4.92-1.17,33.11,27.55,33.11,59.95" transform="translate(0 0)"/></g></g></g><g class="cls-7"><line class="cls-9" x1="85.45" y1="320.81" x2="149.04" y2="320.81"/><polygon points="170.22 320.81 140.37 333 147.45 320.81 140.37 308.62 170.22 320.81"/></g><g class="cls-7"><g class="cls-16"><g class="cls-16"><line class="cls-3" x1="1.48" y1="403.52" x2="21.64" y2="403.19"/><line class="cls-3" x1="1.74" y1="419.32" x2="21.89" y2="419"/><line class="cls-3" x1="1.78" y1="483.67" x2="21.93" y2="483.34"/><line class="cls-3" x1="1.78" y1="499.89" x2="21.93" y2="499.56"/><line class="cls-3" x1="1.67" y1="467.31" x2="21.83" y2="466.98"/><line class="cls-3" x1="1.67" y1="451.23" x2="21.83" y2="450.9"/><line class="cls-3" x1="1.57" y1="435.28" x2="21.73" y2="434.95"/><path d="M73.82,482.25H22.2a5.09,5.09,0,0,1-5.08-5.08V425.56a5.1,5.1,0,0,1,5.08-5.08H73.82a5.1,5.1,0,0,1,5.08,5.08v51.61a5.09,5.09,0,0,1-5.08,5.08" transform="translate(0 0)"/><path class="cls-4" d="M48.59,450.74c0,32.4-28.19,61.12-33.11,59.94-3.51-.83,1.65-13.11,1.65-56.54S12,391.63,15.48,390.8c4.92-1.18,33.11,27.54,33.11,59.94" transform="translate(0 0)"/></g></g></g><g class="cls-7"><line class="cls-9" x1="85.45" y1="450.74" x2="149.04" y2="450.74"/><polygon points="170.22 450.74 140.37 462.94 147.45 450.74 140.37 438.55 170.22 450.74"/></g><rect class="cls-17" x="53.28" y="179.24" width="445.22" height="152.65" rx="15.93" transform="translate(531.45 -20.32) rotate(90)"/><line class="cls-18" x1="199" y1="61.23" x2="183.35" y2="61.23"/><path class="cls-12" d="M183.57,57.47a3.76,3.76,0,1,0,3.76,3.76A3.76,3.76,0,0,0,183.57,57.47Z" transform="translate(0 0)"/><path d="M183.57,57a4.26,4.26,0,1,1-4.26,4.26A4.26,4.26,0,0,1,183.57,57Zm0,7.52a3.26,3.26,0,1,0-3.26-3.26,3.26,3.26,0,0,0,3.26,3.26Z" transform="translate(0 0)"/><path d="M253.89,60h44v8.92l-14,4.22c-1.4.45-2.68.8-3.82,1.06s-2,.43-2.56.51c.56.08,1.41.25,2.56.51s2.42.62,3.82,1.06l14,4.16v9h-44v-7h18.5q6.09,0,11.3.48T293.61,84l-20.8-6V71.42l20.38-6q-4.23.6-9.25,1.14a106.75,106.75,0,0,1-11.55.55h-18.5Z" transform="translate(0 0)"/><path d="M253.28,110.9q0-6.45,3.53-10.1t9.61-3.65h31.47v7.6H266.48a7,7,0,0,0-4.88,1.57,6.83,6.83,0,0,0,0,9.13,7,7,0,0,0,4.88,1.6h31.41v7.59H266.42q-6.09,0-9.61-3.62T253.28,110.9Z" transform="translate(0 0)"/><path d="M253.89,136.27h44v7.54H260.7V162.5h-6.81Z" transform="translate(0 0)"/><path d="M253.89,179.43h37.19V167.92h6.81v30.62h-6.81V187H253.89Z" transform="translate(0 0)"/><path d="M253.89,206.74h6.81v8.86h30.38v-8.86h6.81v25.32h-6.81V223.2H260.7v8.86h-6.81Z" transform="translate(0 0)"/><path d="M253.89,242.12h44v14.65a16.6,16.6,0,0,1-1.69,7.69,12.32,12.32,0,0,1-4.73,5.09,15,15,0,0,1-14.29,0,12.38,12.38,0,0,1-4.73-5.09,16.73,16.73,0,0,1-1.69-7.69v-7.11H253.89Zm23.51,7.54v7.11a6.72,6.72,0,0,0,1.92,5.06,7.63,7.63,0,0,0,10,0,6.69,6.69,0,0,0,1.93-5.06v-7.11Z" transform="translate(0 0)"/><path d="M253.89,280.94h44v7.54H260.7v18.68h-6.81Z" transform="translate(0 0)"/><path d="M253.89,315.12h44v26.4h-6.63v-19H279.81v16.88h-6.39V322.53h-12.9v19h-6.63Z" transform="translate(0 0)"/><path d="M253.89,347.67l22.54,12.17,21.46-11.45v8.44l-11,5.55c-.81.4-1.58.76-2.32,1.08l-1.72.72a16.12,16.12,0,0,1,1.72.67c.74.32,1.51.68,2.32,1.08l11,5.61v8.2l-21.28-11.46-22.72,12.18V372l12.17-6.21c.77-.4,1.54-.77,2.32-1.11s1.4-.6,1.84-.76c-.44-.16-1-.4-1.81-.72s-1.54-.68-2.35-1.09l-12.17-6.26Z" transform="translate(0 0)"/><path d="M253.89,387.45h44v26.4h-6.63v-19H279.81v16.87h-6.39V394.87h-12.9v19h-6.63Z" transform="translate(0 0)"/><path d="M253.89,422.89h44v13.93a16.66,16.66,0,0,1-1.63,7.62,12.28,12.28,0,0,1-4.55,5,12.91,12.91,0,0,1-6.9,1.81,13.56,13.56,0,0,1-7.69-2.2,12,12,0,0,1-4.67-5.94l-18.56,8.74v-8.44l17.48-7.66v-5.36H253.89ZM278,430.43v6.39a6.86,6.86,0,0,0,1.75,5,6.36,6.36,0,0,0,4.82,1.81,6.52,6.52,0,0,0,4.88-1.84,6.75,6.75,0,0,0,1.81-5v-6.39Z" transform="translate(0 0)"/><line class="cls-18" x1="199" y1="451.17" x2="183.35" y2="451.17"/><path class="cls-12" d="M183.57,447.41a3.76,3.76,0,1,0,3.76,3.76A3.76,3.76,0,0,0,183.57,447.41Z" transform="translate(0 0)"/><path d="M183.57,446.91a4.26,4.26,0,1,1-4.26,4.26,4.26,4.26,0,0,1,4.26-4.26Zm0,7.52a3.26,3.26,0,1,0-3.26-3.26,3.27,3.27,0,0,0,3.26,3.26Z" transform="translate(0 0)"/><line class="cls-18" x1="199" y1="191.21" x2="183.35" y2="191.21"/><path class="cls-12" d="M183.57,187.45a3.76,3.76,0,1,0,3.76,3.76A3.76,3.76,0,0,0,183.57,187.45Z" transform="translate(0 0)"/><path d="M183.57,187a4.26,4.26,0,1,1-4.26,4.26,4.26,4.26,0,0,1,4.26-4.26Zm0,7.52a3.26,3.26,0,1,0-3.26-3.26,3.26,3.26,0,0,0,3.26,3.26Z" transform="translate(0 0)"/><line class="cls-18" x1="199" y1="321.19" x2="183.35" y2="321.19"/><path class="cls-12" d="M183.57,317.43a3.76,3.76,0,1,0,3.76,3.76A3.76,3.76,0,0,0,183.57,317.43Z" transform="translate(0 0)"/><path d="M183.57,316.93a4.26,4.26,0,1,1-4.26,4.26,4.26,4.26,0,0,1,4.26-4.26Zm0,7.52a3.26,3.26,0,1,0-3.26-3.26,3.26,3.26,0,0,0,3.26,3.26Z" transform="translate(0 0)"/><line class="cls-18" x1="367.21" y1="255.56" x2="351.56" y2="255.56"/><circle class="cls-12" cx="367" cy="255.56" r="3.76"/><path d="M367,251.3a4.26,4.26,0,1,0,4.25,4.26A4.27,4.27,0,0,0,367,251.3Zm0,7.52a3.26,3.26,0,1,1,3.25-3.26,3.26,3.26,0,0,1-3.25,3.26Z" transform="translate(0 0)"/><line class="cls-19" x1="199" y1="61.23" x2="322.25" y2="61.23"/><line class="cls-20" x1="199" y1="321.19" x2="322.25" y2="321.19"/><line class="cls-20" x1="199" y1="191.21" x2="322.25" y2="191.21"/><line class="cls-20" x1="199" y1="451.17" x2="322.25" y2="451.17"/><line class="cls-20" x1="322.25" y1="255.56" x2="322.25" y2="451.17"/><line class="cls-19" x1="351.56" y1="255.56" x2="322.25" y2="255.56"/><line class="cls-19" x1="322.25" y1="61.23" x2="322.25" y2="255.56"/></svg>