<svg width="24" height="24" viewBox="0 0 24 24" fill="none" xmlns="http://www.w3.org/2000/svg">
<path d="M18.7948 0.890925C20.5669 1.92381 21.7202 4.13928 22.6485 6.42959C23.5767 8.7199 24.2659 11.0851 23.9002 13.2406C23.5486 15.3962 22.1562 17.3572 20.6091 19.0937C19.0621 20.8301 17.3743 22.327 15.3631 23.1803C13.3519 24.0485 11.0313 24.2581 8.87947 23.6593C6.72763 23.0755 4.75863 21.6684 3.14123 19.8421C1.52383 18.0159 0.258039 15.7854 0.03301 13.4502C-0.177955 11.115 0.65184 8.67499 1.67854 6.36971C2.70523 4.06443 3.92883 1.8789 5.72906 0.875955C7.5293 -0.141961 9.90617 0.00773205 12.283 0.00773205C14.6599 0.00773205 17.0368 -0.141961 18.7948 0.890925Z" fill="#6A2675"/>
<path d="M3.43364 5.4H8.83364V7.2H5.41364V10.53H8.13164V12.33H5.41364V16.2H8.83364V18H3.43364V5.4ZM9.9187 10.782C9.9187 10.206 10.0087 9.714 10.1887 9.306C10.3687 8.886 10.6927 8.424 11.1607 7.92C11.6287 7.44 11.9527 7.02 12.1327 6.66C12.3127 6.3 12.4027 5.91 12.4027 5.49C12.4027 5.202 12.3487 4.992 12.2407 4.86C12.1447 4.716 11.9827 4.644 11.7547 4.644C11.3227 4.644 11.1067 4.908 11.1067 5.436V6.174H9.9187V5.508C9.9187 4.86 10.0747 4.368 10.3867 4.032C10.7107 3.684 11.1787 3.51 11.7907 3.51C12.4027 3.51 12.8647 3.678 13.1767 4.014C13.5007 4.35 13.6627 4.83 13.6627 5.454C13.6627 5.97 13.5487 6.462 13.3207 6.93C13.0927 7.386 12.6907 7.92 12.1147 8.532C11.7427 8.94 11.4907 9.27 11.3587 9.522C11.2267 9.762 11.1607 10.032 11.1607 10.332V10.548H13.5547V11.682H9.9187V10.782ZM17.8608 18.18C16.9008 18.18 16.1688 17.91 15.6648 17.37C15.1608 16.818 14.9088 16.032 14.9088 15.012V8.388C14.9088 7.368 15.1608 6.588 15.6648 6.048C16.1688 5.496 16.9008 5.22 17.8608 5.22C18.8208 5.22 19.5528 5.496 20.0568 6.048C20.5608 6.588 20.8128 7.368 20.8128 8.388V9.468H18.9408V8.262C18.9408 7.434 18.5988 7.02 17.9148 7.02C17.2308 7.02 16.8888 7.434 16.8888 8.262V15.156C16.8888 15.972 17.2308 16.38 17.9148 16.38C18.5988 16.38 18.9408 15.972 18.9408 15.156V12.69H17.9508V10.89H20.8128V15.012C20.8128 16.032 20.5608 16.818 20.0568 17.37C19.5528 17.91 18.8208 18.18 17.8608 18.18Z" fill="url(#paint0_radial)"/>
<defs>
<radialGradient id="paint0_radial" cx="0" cy="0" r="1" gradientUnits="userSpaceOnUse" gradientTransform="translate(12 4) rotate(90) scale(20 40.0758)">
<stop stop-color="white" stop-opacity="0.94"/>
<stop offset="1" stop-color="#EDBCF5" stop-opacity="0.74"/>
</radialGradient>
</defs>
</svg>
